<svg width="108" height="33" viewBox="0 0 108 33" fill="none" xmlns="http://www.w3.org/2000/svg">
<g clip-path="url(#clip0_3832_9812)">
<path d="M100.598 30.0479C99.2524 30.0479 98.0001 29.7575 96.8763 29.1857C95.7237 28.6005 94.7839 27.7449 94.0879 26.6411C93.3853 25.524 93.0306 24.1985 93.0306 22.6979V16.9926H91.4879V10.0438H93.0306V5.62621L103.781 4.53125V10.0438H107.609V16.9926H103.781V19.9117C103.781 20.774 103.945 21.4079 104.253 21.7426C104.353 21.8512 104.798 22.2081 106.279 22.2081H107.609V27.6807L107.024 28.0752C106.146 28.667 105.142 29.148 104.036 29.5049C102.916 29.8662 101.762 30.0501 100.598 30.0501V30.0479Z" fill="white"/>
<path d="M31.6418 30.0197C30.283 30.0197 28.942 29.7803 27.6542 29.3082C26.3642 28.8361 25.185 28.1445 24.1521 27.2535C23.1037 26.3491 22.2614 25.2497 21.6452 23.9885C21.0224 22.7029 20.7076 21.2622 20.7076 19.7062C20.7076 18.1502 21.0024 16.756 21.5854 15.4859C22.1661 14.2225 22.9751 13.1231 23.9925 12.2143C24.9966 11.3188 26.1714 10.6184 27.4813 10.133C28.7824 9.65202 30.1833 9.4082 31.644 9.4082C33.6788 9.4082 35.5539 9.82048 37.2186 10.6317C38.9186 11.4607 40.2907 12.6687 41.2903 14.2181C42.2966 15.7807 42.8086 17.6448 42.8086 19.7616C42.8086 21.3287 42.4939 22.7716 41.8755 24.0484C41.2659 25.3118 40.4192 26.4045 39.3597 27.3C38.3202 28.1778 37.121 28.8582 35.7978 29.3237C34.4856 29.787 33.0892 30.0219 31.644 30.0219L31.6418 30.0197Z" fill="white"/>
<path d="M63.491 29.5188H52.0781L50.5354 27.0341V29.5188H40.7339V4.09082H50.4002V11.8243L51.5328 10.0444H62.7972" fill="white"/>
<path d="M69.8435 4.09082H59.5145V29.5188H69.8435V4.09082Z" fill="white"/>
<path d="M79.071 10.0439H68.578V29.5206H79.071V10.0439Z" fill="white"/>
<path d="M77.515 21.0608L78.907 21.1272C79.1176 21.1361 78.3063 20.9233 78.6277 21.0186C78.0137 20.5288 78.5435 20.1498 78.1356 19.3784C77.6879 18.5339 77.4596 17.47 77.4596 16.2176C77.4596 14.9653 77.7411 13.8681 78.2974 12.9593C78.8405 12.0727 79.5786 11.3524 80.4896 10.816C81.3319 10.3195 82.2894 9.95152 83.3334 9.72765C84.3286 9.51486 85.3615 9.40625 86.4055 9.40625C87.2722 9.40625 88.1034 9.45058 88.8791 9.53703C89.6305 9.62125 90.2866 9.71435 90.8319 9.81409C91.5611 9.9493 91.7784 10.0003 91.9047 10.0357L92.8888 10.3017L93.8021 17.8889L93.9594 19.1102C94.0968 19.2144 93.9572 20.1874 94.0835 20.2983C94.7042 20.8413 93.1238 19.3585 93.4585 20.1808C93.7843 20.981 93.9439 21.9318 93.9439 23.0889C93.9439 25.3918 93.0928 27.1673 91.4104 28.3664C89.8677 29.4636 87.8418 30.02 85.3881 30.02C83.5484 30.02 82.1431 29.9113 81.0925 29.6875C80.0175 29.457 79.0444 29.1045 78.1999 28.6368" fill="white"/>
<path d="M92.8223 11.4047H94.365L94.3694 6.86087L102.46 6.04297L102.455 11.4136H106.283L106.281 15.7048H102.453L102.451 19.9517C102.451 21.1774 102.726 22.0884 103.273 22.6847C103.823 23.2809 104.825 23.5779 106.277 23.5801V27.0157C105.499 27.5388 104.614 27.96 103.621 28.2792C102.63 28.5983 101.617 28.7579 100.591 28.7579C99.4541 28.7579 98.4146 28.5186 97.4726 28.0376C96.5305 27.5588 95.7747 26.8672 95.2073 25.9673C94.6398 25.0652 94.3561 23.9858 94.3583 22.7334L94.3628 15.6982H92.8201L92.8223 11.4092V11.4047Z" fill="black"/>
<path d="M73.3235 11.1524C72.1531 11.1524 70.8188 11.179 69.9832 10.432C67.9395 8.60558 68.1789 4.8131 70.2336 2.51678C71.3774 1.23562 72.9511 0.501953 74.5514 0.501953C75.7218 0.501953 76.8278 0.914227 77.6634 1.6612C79.7071 3.48761 79.696 6.84122 77.6435 9.13976C76.4998 10.4209 74.926 11.1546 73.3257 11.1546L73.3235 11.1524Z" fill="white"/>
<path d="M0.75 32.5V10.0443H7.19566L8.57656 11.9506C9.42549 11.2169 10.2988 10.6517 11.1854 10.2638C12.4821 9.69635 13.7056 9.4082 14.8249 9.4082C16.5782 9.4082 18.0855 9.7828 19.3068 10.5187C20.5347 11.2612 21.4745 12.2697 22.0952 13.5199C22.6958 14.7279 22.9995 16.0755 22.9995 17.5296C22.9995 18.507 22.8576 19.5444 22.5784 20.6127C22.2946 21.6944 21.8403 22.7628 21.2218 23.7935C20.5924 24.8419 19.7612 25.8016 18.7482 26.6483C17.7308 27.4973 16.494 28.1866 15.071 28.6986C14.0004 29.0843 12.7857 29.337 11.447 29.4523V32.5022H0.75V32.5Z" fill="white"/>
<path d="M31.6329 28.6716C30.4249 28.6716 29.2479 28.4589 28.1019 28.0399C26.956 27.6188 25.9275 27.0159 25.0121 26.2246C24.0967 25.4333 23.3719 24.4868 22.8355 23.383C22.3013 22.277 22.0331 21.0446 22.0331 19.6814C22.0331 18.3182 22.288 17.1169 22.7933 16.0153C23.3009 14.9159 23.9947 13.9716 24.8791 13.1826C25.7635 12.3935 26.7853 11.7861 27.9446 11.3584C29.1038 10.9306 30.3384 10.7178 31.6462 10.7178C33.4859 10.7178 35.1505 11.0835 36.6378 11.8105C38.1251 12.5375 39.3043 13.5771 40.1731 14.9247C41.042 16.2746 41.4765 17.8816 41.4742 19.7479C41.4742 21.1199 41.206 22.3545 40.6719 23.4539C40.1399 24.5556 39.4129 25.4909 38.493 26.2667C37.5732 27.0425 36.5225 27.6365 35.3455 28.0488C34.1686 28.4633 32.9295 28.6694 31.6329 28.6694V28.6716ZM30.7817 23.2057C31.1785 23.2057 31.6218 23.0195 32.1094 22.6449C32.597 22.2703 33.0647 21.7938 33.5169 21.213C33.9669 20.6323 34.3415 20.0205 34.634 19.3822C34.9266 18.7416 35.0751 18.1564 35.0751 17.6223C35.0751 17.2166 34.9709 16.8487 34.7582 16.5118C34.5476 16.1793 34.1841 16.0108 33.6699 16.0108C33.1999 16.0108 32.7034 16.1882 32.1803 16.545C31.6572 16.9019 31.1674 17.3651 30.7108 17.9392C30.2542 18.5111 29.884 19.1206 29.6003 19.7634C29.3144 20.4084 29.1725 21.0224 29.1725 21.6098C29.1725 22.0065 29.2878 22.3723 29.5227 22.707C29.7577 23.0417 30.1766 23.2079 30.7795 23.2079L30.7817 23.2057Z" fill="black"/>
<path d="M68.5071 28.2016L60.8379 28.1949L60.8556 5.42676L68.5248 5.43341L68.5071 28.2016Z" fill="black"/>
<path d="M78.8404 22.4748C79.0111 22.4837 79.337 22.5746 79.8135 22.7452C80.2923 22.9159 80.8287 23.0866 81.4227 23.2528C82.0167 23.4191 82.5731 23.5033 83.0873 23.5033C83.3489 23.5033 83.5616 23.4567 83.7212 23.3637C83.883 23.2683 83.9651 23.0955 83.9651 22.8428C83.9651 22.5081 83.7922 22.2288 83.4442 22.0027C83.0962 21.7766 82.6662 21.5417 82.1542 21.2912C81.6399 21.0429 81.1235 20.7238 80.6048 20.3359C80.0861 19.948 79.6539 19.4271 79.3059 18.7732C78.9601 18.1193 78.785 17.2749 78.7873 16.2353C78.7895 15.1957 79.0023 14.3712 79.4323 13.673C79.8623 12.9748 80.4386 12.4118 81.1656 11.984C81.8926 11.5562 82.7083 11.2459 83.6148 11.0531C84.5214 10.8602 85.4524 10.7627 86.4077 10.7627C87.2278 10.7627 88.0036 10.8048 88.735 10.8868C89.4665 10.9688 90.0871 11.0575 90.5969 11.1506C91.1045 11.2459 91.4281 11.3124 91.5633 11.3479L91.5589 16.4481C90.9183 16.3018 90.3575 16.1843 89.881 16.0934C89.4044 16.0026 88.9212 15.9228 88.4336 15.8496C87.9459 15.7765 87.5315 15.741 87.1879 15.741C86.9263 15.741 86.7269 15.7986 86.5872 15.9161C86.4476 16.0336 86.3766 16.1688 86.3766 16.3217C86.3766 16.4658 86.4542 16.6055 86.6072 16.7407C86.7601 16.8759 87.0704 17.0377 87.5403 17.2283C88.2518 17.5187 88.9146 17.809 89.5285 18.1016C90.1425 18.3942 90.6789 18.7444 91.1444 19.1523C91.6076 19.5579 91.9689 20.0788 92.2238 20.7083C92.481 21.34 92.6095 22.1423 92.6095 23.1154C92.6095 24.9728 91.9468 26.3715 90.6302 27.3091C89.3113 28.2444 87.5625 28.7143 85.3792 28.7121C83.6481 28.7121 82.3071 28.608 81.3606 28.4063C80.4142 28.2023 79.5697 27.8965 78.8316 27.4908L78.836 22.4726L78.8404 22.4748Z" fill="black"/>
<path d="M77.7323 28.2082L69.899 28.2016L69.9123 11.3848L77.7456 11.3914L77.7323 28.2082Z" fill="black"/>
<path d="M76.6576 8.27346C78.227 6.52058 78.2853 4.01264 76.7878 2.67182C75.2903 1.33101 72.804 1.66505 71.2346 3.41793C69.6651 5.17081 69.6068 7.67874 71.1043 9.01956C72.6018 10.3604 75.0881 10.0263 76.6576 8.27346Z" fill="black"/>
<path d="M20.9071 14.0872C20.3973 13.0632 19.637 12.2431 18.6219 11.6291C17.6067 11.0151 16.3433 10.707 14.8272 10.707C13.8896 10.707 12.8545 10.9531 11.7218 11.4496C10.5892 11.9439 9.48313 12.7728 8.39925 13.9365L6.52185 11.3365L2.08436 11.3321L2.06885 31.1301L10.106 31.1368V28.1555C11.8304 28.1223 13.331 27.874 14.6122 27.4152C15.8933 26.9564 16.9861 26.3513 17.8882 25.5977C18.7903 24.8463 19.5196 24.0084 20.0759 23.0819C20.63 22.1576 21.0357 21.2134 21.2884 20.2492C21.541 19.285 21.6674 18.3696 21.6696 17.5029C21.6696 16.2483 21.4169 15.1113 20.9093 14.0872H20.9071ZM14.559 19.531C14.2664 20.1716 13.8918 20.7811 13.4418 21.3619C12.9897 21.9426 12.522 22.4214 12.0344 22.7938C11.5467 23.1683 11.1056 23.3545 10.7067 23.3545C10.1038 23.3545 9.68483 23.1861 9.44988 22.8536C9.21493 22.5189 9.09967 22.1554 9.09967 21.7564C9.09967 21.1713 9.24153 20.5551 9.52746 19.9101C9.81118 19.265 10.1813 18.6577 10.6379 18.0858C11.0923 17.5118 11.5822 17.0485 12.1075 16.6917C12.6306 16.337 13.1271 16.1575 13.597 16.1575C14.1112 16.1575 14.4725 16.3259 14.6853 16.6584C14.8981 16.9931 15.0045 17.3633 15.0023 17.7689C15.0023 18.3031 14.856 18.8882 14.5612 19.5288L14.559 19.531Z" fill="black"/>
<path d="M49.0791 5.4185L49.0703 16.3903L52.2665 11.3743L60.2349 11.381L55.0482 18.7221L61.0595 28.1977L52.8073 28.1911L49.4293 22.7362C49.3917 22.8005 49.3495 22.8736 49.3008 22.9601C49.2498 23.0465 49.2188 23.1241 49.1988 23.195L49.1944 28.1867L42.0527 28.1822L42.0705 5.41406L49.0791 5.4185Z" fill="black"/>
</g>
<defs>
<clipPath id="clip0_3832_9812">
<rect width="106.859" height="32" fill="white" transform="translate(0.75 0.5)"/>
</clipPath>
</defs>
</svg>
