<svg width="25" height="25" viewBox="0 0 25 25" fill="none" xmlns="http://www.w3.org/2000/svg">
<path d="M24.0358 4.46486C23.4112 3.26472 22.4771 2.3015 21.2333 1.58038C19.9896 0.859258 18.4418 0.5 16.5843 0.5C15.4357 0.5 14.1675 0.791572 12.7799 1.37472C11.3949 1.95526 10.0372 2.9315 8.71196 4.29824L6.40918 1.24715H0.972656V24.5H10.8192V20.9985C12.9292 20.9569 14.7676 20.6653 16.3372 20.1238C17.9068 19.5849 19.2429 18.8716 20.3481 17.9865C21.4533 17.1014 22.3467 16.1173 23.0256 15.0317C23.7045 13.9461 24.1987 12.8371 24.5083 11.7021C24.8179 10.567 24.9727 9.49447 24.9727 8.47657C24.9727 7.00309 24.6604 5.66759 24.0358 4.46486ZM16.2666 10.8664C15.9082 11.6188 15.4492 12.3347 14.898 13.0194C14.344 13.704 13.771 14.2637 13.1736 14.7037C12.5762 15.1437 12.0358 15.3623 11.547 15.3623C10.8084 15.3623 10.2951 15.1671 10.0073 14.774C9.71943 14.3809 9.57551 13.954 9.57551 13.4854C9.57551 12.7981 9.7493 12.0744 10.0969 11.3168C10.4445 10.5592 10.898 9.84331 11.4574 9.17166C12.0141 8.4974 12.6142 7.9533 13.2551 7.53417C13.8959 7.11764 14.5042 6.90677 15.0772 6.90677C15.7072 6.90677 16.1498 7.10462 16.4105 7.49512C16.6712 7.88822 16.8016 8.32297 16.8016 8.79938C16.8016 9.42678 16.6224 10.1141 16.2639 10.8664H16.2666Z" fill="black"/>
</svg>
