<?xml version="1.0" encoding="UTF-8"?>
<svg id="Layer_1" xmlns="http://www.w3.org/2000/svg" xmlns:xlink="http://www.w3.org/1999/xlink" version="1.1" viewBox="0 0 32 32.2">
  <!-- Generator: Adobe Illustrator 29.5.0, SVG Export Plug-In . SVG Version: 2.1.0 Build 137)  -->
  <defs>
    <style>
      .st0 {
        fill: none;
      }

      .st1 {
        clip-path: url(#clippath-1);
      }

      .st2 {
        clip-path: url(#clippath-3);
      }

      .st3 {
        clip-path: url(#clippath-2);
      }

      .st4 {
        clip-path: url(#clippath);
      }
    </style>
    <clipPath id="clippath">
      <rect class="st0" y=".1" width="148.8" height="32"/>
    </clipPath>
    <clipPath id="clippath-1">
      <rect class="st0" y=".1" width="148.8" height="32"/>
    </clipPath>
    <clipPath id="clippath-2">
      <rect class="st0" y=".1" width="148.8" height="32"/>
    </clipPath>
    <clipPath id="clippath-3">
      <rect class="st0" y=".1" width="32" height="32"/>
    </clipPath>
  </defs>
  <g class="st4">
    <g class="st1">
      <g class="st3">
        <g class="st2">
          <g>
            <path d="M16,32.1C7.2,32.1,0,24.9,0,16.1S7.2.1,16,.1s16,7.2,16,16-7.2,16-16,16h0ZM16,2.9c-7.3,0-13.2,5.9-13.2,13.2s5.9,13.2,13.2,13.2,13.2-5.9,13.2-13.2S23.3,2.9,16,2.9Z"/>
            <path d="M9.2,23.1v-14.2h8.7c1.9,0,3.3.4,4.3,1.2,1,.8,1.4,2,1.4,3.5s-.3,2-.8,2.8c-.5.7-1.3,1.3-2.3,1.6l3.2,5.1h-4.5l-2.8-4.5h-3.3v4.5h-4,0ZM17.6,11.9h-4.4v3.8h4.4c1.4,0,2.1-.6,2.1-1.8v-.2c0-1.2-.7-1.8-2.1-1.8h0Z"/>
          </g>
        </g>
      </g>
    </g>
  </g>
</svg>