<?xml version="1.0" encoding="UTF-8"?>
<svg id="Layer_1" xmlns="http://www.w3.org/2000/svg" xmlns:xlink="http://www.w3.org/1999/xlink" version="1.1" viewBox="0 0 149 32.2">
  <!-- Generator: Adobe Illustrator 29.5.0, SVG Export Plug-In . SVG Version: 2.1.0 Build 137)  -->
  <defs>
    <style>
      .st0 {
        fill: none;
      }

      .st1 {
        clip-path: url(#clippath-1);
      }

      .st2 {
        clip-path: url(#clippath-3);
      }

      .st3 {
        clip-path: url(#clippath-2);
      }

      .st4 {
        clip-path: url(#clippath);
      }
    </style>
    <clipPath id="clippath">
      <rect class="st0" y=".1" width="148.8" height="32"/>
    </clipPath>
    <clipPath id="clippath-1">
      <rect class="st0" y=".1" width="148.8" height="32"/>
    </clipPath>
    <clipPath id="clippath-2">
      <rect class="st0" y=".1" width="148.8" height="32"/>
    </clipPath>
    <clipPath id="clippath-3">
      <rect class="st0" y=".1" width="32" height="32"/>
    </clipPath>
  </defs>
  <g class="st4">
    <g class="st1">
      <g class="st3">
        <g>
          <g class="st2">
            <g>
              <path d="M16,32.1C7.2,32.1,0,24.9,0,16.1S7.2.1,16,.1s16,7.2,16,16-7.2,16-16,16h0ZM16,2.9c-7.3,0-13.2,5.9-13.2,13.2s5.9,13.2,13.2,13.2,13.2-5.9,13.2-13.2S23.3,2.9,16,2.9Z"/>
              <path d="M9.2,23.1v-14.2h8.7c1.9,0,3.3.4,4.3,1.2,1,.8,1.4,2,1.4,3.5s-.3,2-.8,2.8c-.5.7-1.3,1.3-2.3,1.6l3.2,5.1h-4.5l-2.8-4.5h-3.3v4.5h-4,0ZM17.6,11.9h-4.4v3.8h4.4c1.4,0,2.1-.6,2.1-1.8v-.2c0-1.2-.7-1.8-2.1-1.8h0Z"/>
            </g>
          </g>
          <path d="M36,25.8V6.5h11.9c2.6,0,4.5.5,5.8,1.6,1.3,1.1,1.9,2.7,1.9,4.8s-.4,2.8-1.1,3.8c-.7,1-1.8,1.7-3.1,2.2l4.4,6.9h-6.2l-3.7-6.2h-4.4v6.2h-5.4ZM47.4,10.5h-6v5.2h6c1.9,0,2.8-.8,2.8-2.5v-.3c0-1.6-.9-2.5-2.8-2.5h0Z"/>
          <path d="M57.9,25.8V6.5h17.9v4h-12.5v3.6h11.2v3.9h-11.2v3.8h12.7v4h-18.1Z"/>
          <path d="M78.1,25.8V6.5h5.4v15.3h11.5v4h-17Z"/>
          <path d="M97.1,25.8V6.5h5.4v19.3h-5.4Z"/>
          <path d="M115.6,26.1c-1.7,0-3.2-.2-4.7-.5-1.4-.3-2.7-.9-3.8-1.7-1.1-.8-1.9-1.9-2.5-3.2l4.8-1.4c.4.7.8,1.2,1.3,1.6.5.4,1.2.7,2,.9.8.2,1.9.3,3.1.3s2.8-.2,3.6-.5c.8-.3,1.2-.8,1.2-1.3s-.2-.8-.6-1.1c-.4-.3-1.2-.5-2.3-.6l-5.2-.7c-2.4-.3-4.2-.9-5.4-1.8-1.2-.9-1.8-2.1-1.8-3.7s.4-2.6,1.2-3.5c.8-.9,2-1.6,3.5-2.1,1.5-.5,3.3-.7,5.4-.7s2.9.2,4.2.5c1.3.3,2.5.8,3.6,1.6,1.1.7,1.9,1.8,2.5,3.1l-4.6,1.4c-.5-1-1.3-1.7-2.3-2-1-.3-2.3-.5-3.9-.5s-2.4.1-3.2.4c-.8.3-1.2.7-1.2,1.2s.2.8.7,1.1c.4.3,1.2.5,2.2.6l5.7.7c2.3.3,4.1.9,5.1,1.8,1.1.9,1.6,2.2,1.6,3.7s-.4,2.6-1.3,3.6c-.9,1-2.1,1.7-3.7,2.1-1.6.5-3.4.7-5.5.7h0Z"/>
          <path d="M135.8,25.8v-15.3h-7.6v-4h20.7v4h-7.6v15.3h-5.4Z"/>
        </g>
      </g>
    </g>
  </g>
</svg>