<svg width="40" height="35" viewBox="0 0 40 35" fill="none" xmlns="http://www.w3.org/2000/svg">
<path d="M24.9165 33.9789C32.1745 33.8842 39.1491 27.9603 38.4517 20.0795C37.8292 13.0443 32.5841 8.67362 25.5596 9.35204C24.3917 5.15435 20.7735 0.999069 13.8747 2.18628C6.97593 3.3735 4.37192 10.7785 6.90017 16.8724C3.6921 17.6535 1.04477 20.8357 1.56579 24.3419C2.13865 28.1971 4.75165 30.3898 8.58585 30.3396C10.5003 30.3146 12.3042 29.5632 13.5848 28.2974C15.8652 32.0252 19.8212 34.0453 24.9165 33.9789Z" fill="white"/>
<path d="M25.5596 9.35204C24.3917 5.15435 20.7735 0.999069 13.8747 2.18628C6.97593 3.3735 4.37192 10.7785 6.90017 16.8724C3.6921 17.6535 1.04477 20.8357 1.56579 24.3419C2.13865 28.1971 4.75165 30.3898 8.58585 30.3396C10.5003 30.3146 12.3042 29.5632 13.5848 28.2974C15.8652 32.0252 19.8212 34.0453 24.9165 33.9789C32.1745 33.8842 39.1491 27.9603 38.4517 20.0795C37.8292 13.0443 32.5841 8.67362 25.5596 9.35204ZM25.5596 9.35204C25.847 10.5251 26.077 12.1081 25.7752 14.8642" stroke="black" stroke-width="2"/>
</svg>
