<svg width="50" height="52" viewBox="0 0 50 52" fill="none" xmlns="http://www.w3.org/2000/svg">
<path d="M6.87924 22.8002C3.38674 29.8843 5.75192 39.6069 13.8265 42.8694C21.0346 45.7818 27.9127 42.881 30.7173 35.7317C35.4116 36.6973 41.2747 35.2662 43.5181 27.9844C45.7616 20.7026 39.7846 14.4771 32.5583 13.8827C33.377 10.3821 31.5634 6.22507 27.8668 4.97785C23.8025 3.60654 20.3609 5.04401 18.5161 8.78636C17.5949 10.6549 17.4408 12.7793 18.0497 14.6535C13.2668 15.0013 9.33108 17.8271 6.87924 22.8002Z" fill="#89F3E7"/>
<path d="M30.7173 35.7317C35.4116 36.6973 41.2747 35.2662 43.5181 27.9844C45.7616 20.7026 39.7846 14.4771 32.5583 13.8827C33.377 10.3821 31.5634 6.22507 27.8668 4.97785C23.8025 3.60654 20.3609 5.04401 18.5161 8.78636C17.5949 10.6549 17.4408 12.7793 18.0497 14.6535C13.2668 15.0013 9.33108 17.8271 6.87924 22.8002C3.38674 29.8843 5.75192 39.6069 13.8265 42.8694C21.0346 45.7818 27.9127 42.881 30.7173 35.7317ZM30.7173 35.7317C29.4246 35.4241 27.7584 34.8559 25.2041 33.1858" stroke="black" stroke-width="2"/>
</svg>
