<?xml version="1.0" encoding="UTF-8"?>
<svg id="Layer_1" xmlns="http://www.w3.org/2000/svg" version="1.1" viewBox="0 0 112.6 139.5">
  <!-- Generator: Adobe Illustrator 29.1.0, SVG Export Plug-In . SVG Version: 2.1.0 Build 142)  -->
  <defs>
    <style>
      .st0 {
        fill: #ffffeb;
      }

      .st1 {
        fill: #ef0;
      }

      .st2 {
        fill: #fff;
      }

      .st3 {
        fill: #46c2b7;
      }
    </style>
  </defs>
  <path d="M37,134.5c-1-4.9,1.5-9.5,6.2-11.4,2.3-.9,5-1.4,7.7-1.4s.7,0,1,0l.7-6-26.3-.5h0l26.3.5.2-1.8.9-15.7c.3-7-4.8-6.9-11.7-7.3-6.7-.4-12.8-1.8-13.7,4.8l-3.1,27.2h0c0,0,0,.2,0,.2,0,0,0,.2,0,.2-.2.5-.5,1-.9,1.3-.5.4-1.2.7-2,.6-2-.1-5,0-7.9,1.1-6.9,2.8-4.8,13.1,2.6,13l22.2-.2c-1.1-1.3-1.9-2.9-2.3-4.8h0ZM25.1,123.4c0,0,0-.2,0-.2,0,0,0,.2,0,.2Z"/>
  <path d="M72.2,90.8h0c-6.7-.4-12.8-1.8-13.7,4.8l-3.1,27.2,1.2-7.7,26.4.5h0l-26.4-.5-1.2,7.7h0s0,0,0,0h0s0,0,0,0c0,0,0,.1,0,.2,0,0,0,.2,0,.2,0,0,0-.2,0-.2,0,.3-.2.5-.3.8,0,0,0,.2-.1.2-.5.8-1.5,1.2-2.5,1.2-2-.1-5,0-7.9,1.1-6.9,2.8-4.8,13.1,2.7,13l28.3-.3c3.6,0,6.5-2.9,6.7-6.4l.8-16.9v1c0,0,1-18.6,1-18.6.3-7-4.8-6.9-11.7-7.3h0Z"/>
  <path d="M12.6,61.7S-3.3,72.9.6,117.6c.3,3.7,3.6,6.7,7.9,7.1,0,0,.1,0,.2,0,6.4.6,19.4-8.2,11.2-16.6,0,0,.6-11,2-15.4"/>
  <path d="M96.1,61.7s15.9,11.2,12,55.9c-.3,3.7-3.6,6.7-7.9,7.1,0,0-.1,0-.2,0-6.3.6-19.3-8.2-11.2-16.6,0,0-.6-11-2-15.4"/>
  <g>
    <g>
      <g>
        <path class="st1" d="M30.3,19l51.7,6.2c4.9.6,8.4,5,7.8,9.9l-3.2,26.7-69.4-8.3,3.2-26.7c.6-4.9,5-8.4,9.9-7.8Z"/>
        <path d="M88.2,63.8L15.1,55.1l3.4-28.5c.7-5.9,6.1-10.1,12-9.4l51.7,6.2c2.9.3,5.4,1.8,7.2,4,1.8,2.3,2.6,5.1,2.2,7.9l-3.4,28.5ZM19.2,51.9l65.8,7.8,3-24.9c.2-1.9-.3-3.7-1.5-5.2-1.2-1.5-2.9-2.4-4.7-2.7l-51.7-6.2c-3.9-.5-7.4,2.3-7.9,6.2l-3,24.9Z"/>
      </g>
      <g>
        <path class="st3" d="M57.3,87.2c-.6,0-1.2,0-1.7-.3-1.3-.5-2.3-1.4-2.8-2.6-.6-1.2-.6-2.6-.2-3.8L76.8,14.1c.7-2,2.6-3.3,4.7-3.3s1.2.1,1.7.3c2.6.9,4,3.8,3,6.5l-24.1,66.4c-.7,2-2.6,3.3-4.7,3.3h0Z"/>
        <path d="M81.5,12.6c.4,0,.7,0,1.1.2h0c1.7.6,2.6,2.5,1.9,4.2l-24.1,66.4c-.5,1.3-1.7,2.1-3,2.1s-.7,0-1.1-.2c-1.7-.6-2.6-2.5-1.9-4.2L78.4,14.7c.5-1.3,1.7-2.1,3.1-2.1M81.5,9c-2.9,0-5.4,1.8-6.4,4.5l-24.1,66.4c-.6,1.7-.5,3.6.2,5.2s2.1,2.9,3.8,3.5c.8.3,1.5.4,2.3.4,2.9,0,5.4-1.8,6.4-4.5l24.1-66.4c1.3-3.5-.5-7.5-4.1-8.8-.8-.3-1.5-.4-2.3-.4h0Z"/>
      </g>
      <g>
        <path class="st3" d="M78.9,11.1l6.6-8.6c.3-.4.7-.6,1.2-.6s1,.2,1.3.6c.3.3.4.7.3,1.2l-1.5,10.7-7.9-3.3h0Z"/>
        <path d="M86.3,4.7l-1,7-3.3-1.4,4.3-5.6M86.8,0c-1,0-2,.4-2.7,1.4l-8.1,10.6,12.4,5.2,1.9-13.1c.3-2.3-1.5-4-3.5-4h0Z"/>
      </g>
    </g>
    <g>
      <path class="st2" d="M54.7,111.5h0c-27.2,0-49.2-12.2-49.2-39.4v-23.8c0-4.8,3.9-8.7,8.7-8.7h81.1c4.8,0,8.7,3.9,8.7,8.7v23.8c0,27.2-22,39.4-49.2,39.4Z"/>
      <path d="M54.7,113.2c-14.6,0-26.9-3.4-35.8-9.8-9.9-7.2-15.1-18-15.1-31.3v-23.7c0-5.8,4.7-10.4,10.4-10.4h81.1c5.8,0,10.4,4.7,10.4,10.4v23.7c0,13.3-5.2,24.1-15.1,31.3-8.9,6.4-21.3,9.8-35.8,9.8ZM14.1,41.3c-3.8,0-7,3.1-7,7v23.7c0,23.6,17.8,37.7,47.5,37.7s47.5-14.1,47.5-37.7v-23.7c0-3.8-3.1-7-7-7H14.1Z"/>
    </g>
    <g>
      <g>
        <ellipse class="st0" cx="40" cy="68.2" rx="11" ry="20.4"/>
        <path d="M40,90.1c-7,0-12.4-9.6-12.4-21.9s5.5-21.9,12.4-21.9,12.4,9.6,12.4,21.9-5.5,21.9-12.4,21.9ZM40,49.3c-5.1,0-9.5,8.7-9.5,18.9s4.3,18.9,9.5,18.9,9.5-8.7,9.5-18.9-4.3-18.9-9.5-18.9Z"/>
      </g>
      <path d="M50.5,72.6c.3-1.9.5-2.4.5-4.6,0-8.8-3-16.3-7.2-19.2-4.2,2.9-7.2,10.4-7.2,19.2s3,16.3,7.2,19.2c2.2-1.5,4-4.2,5.3-7.7"/>
    </g>
    <g>
      <g>
        <ellipse class="st0" cx="67.7" cy="68.5" rx="10.9" ry="20.4"/>
        <path d="M67.7,90.4c-7,0-12.4-9.6-12.4-21.9s5.5-21.9,12.4-21.9,12.4,9.6,12.4,21.9-5.5,21.9-12.4,21.9ZM67.7,49.6c-5.1,0-9.5,8.7-9.5,18.9s4.3,18.9,9.5,18.9,9.5-8.7,9.5-18.9-4.3-18.9-9.5-18.9Z"/>
      </g>
      <path d="M78.2,72.9c.3-1.9.5-2.4.5-4.6,0-8.8-3-16.3-7.2-19.2-4.2,2.9-7.2,10.4-7.2,19.2s3,16.3,7.2,19.2c2.2-1.5,4-4.2,5.3-7.7"/>
    </g>
    <g>
      <path d="M104.2,49.8h6.2c.3,0,.6.3.6.6v24.6c0,.3-.3.6-.6.6h-6.2v-25.8h0Z"/>
      <path d="M110.4,77.2h-7.9v-29h7.9c1.2,0,2.2,1,2.2,2.2v24.6c0,1.2-1,2.2-2.2,2.2ZM105.8,74h3.6v-22.6h-3.6v22.6Z"/>
    </g>
    <g>
      <ellipse class="st2" cx="53" cy="85.5" rx="7.3" ry="4.8"/>
      <path d="M53,92.2c-5.1,0-9.1-2.9-9.1-6.7s4-6.7,9.1-6.7,9.1,2.9,9.1,6.7-4,6.7-9.1,6.7ZM53,82.5c-3.1,0-5.4,1.6-5.4,3s2.3,3,5.4,3,5.4-1.6,5.4-3-2.3-3-5.4-3Z"/>
    </g>
    <g>
      <path class="st2" d="M29.8,67.2c0-10.4,4.5-18.8,10.1-18.8s10.1,8.4,10.1,18.8"/>
      <path d="M27.6,67.2c0-11.8,5.4-21,12.3-21s12.3,9.2,12.3,21M47.8,67.2c0-9.8-4.2-16.6-7.9-16.6s-7.9,6.8-7.9,16.6"/>
    </g>
    <path d="M37,69.9c-13.3,0-15.7-7.5-15.8-7.9-.3-1.2.3-2.4,1.5-2.7,1.1-.3,2.4.3,2.7,1.4,0,.2,3.4,8.3,23.7,3.1,1.2-.3,2.4.4,2.7,1.6.3,1.2-.4,2.4-1.6,2.7-5.3,1.4-9.6,1.9-13.2,1.9Z"/>
    <g>
      <g>
        <path class="st2" d="M57.7,67.2c0-10.4,4.5-18.8,10.1-18.8s10.1,8.4,10.1,18.8"/>
        <path d="M55.5,67.2c0-11.8,5.4-21,12.3-21s12.3,9.2,12.3,21M75.7,67.2c0-9.8-4.2-16.6-7.9-16.6s-7.9,6.8-7.9,16.6"/>
      </g>
      <path d="M64.8,69.9c-13.3,0-15.7-7.5-15.8-7.9-.3-1.2.3-2.4,1.5-2.7,1.1-.3,2.4.3,2.7,1.4,0,.2,3.4,8.3,23.7,3.1,1.2-.3,2.4.4,2.7,1.6.3,1.2-.4,2.4-1.6,2.7-5.3,1.4-9.6,1.9-13.2,1.9Z"/>
    </g>
  </g>
</svg>