<svg width="134" height="121" viewBox="0 0 134 121" fill="none" xmlns="http://www.w3.org/2000/svg">
<g clip-path="url(#clip0_5200_22567)">
<path d="M61.5826 88.2941C61.5826 88.2941 47.5646 92.4083 25.1204 61.6509C23.5692 59.5256 22.4113 53.6183 23.7208 49.2907C24.4327 46.9344 27.1111 43.9841 29.5345 43.5661C34.7704 42.6618 41.4257 44.5319 40.1557 54.6128C40.1557 54.6128 46.633 61.3451 49.898 63.4462" fill="black"/>
<path d="M15.637 25.523C16.6345 23.1733 19.3458 22.0754 21.6924 23.0743L25.9418 24.8806L31.6083 27.2897L35.8577 29.096C38.2043 30.0948 39.3006 32.8097 38.3031 35.1594L25.0673 66.37C24.0698 68.7197 21.3585 69.8176 19.0119 68.8187L4.84445 62.7949C2.49787 61.796 1.40147 59.0811 2.39899 56.7314L15.6348 25.5208L15.637 25.523Z" fill="#F2FF00"/>
<path d="M19.2628 70.5877C18.9683 70.5107 18.6783 70.4139 18.3905 70.2907L4.22306 64.2668C2.69602 63.6178 1.51174 62.4121 0.89213 60.872C0.270328 59.332 0.285708 57.6401 0.933877 56.111L14.1719 24.9004C15.51 21.7433 19.1639 20.2648 22.3168 21.6069L26.564 23.4132C26.564 23.4132 26.5684 23.4132 26.5706 23.4154L32.2327 25.8223C32.2327 25.8223 32.2327 25.8223 32.2349 25.8223L36.4843 27.6285C39.6372 28.9684 41.1115 32.6272 39.7734 35.7843L26.5376 66.9949C25.3204 69.8638 22.1916 71.3467 19.2628 70.5855V70.5877ZM20.647 24.3988C19.221 24.0292 17.6984 24.7508 17.1073 26.1479L3.86931 57.3585C3.55292 58.1021 3.54632 58.9249 3.84954 59.6752C4.15275 60.4254 4.72841 61.0128 5.47106 61.3275L19.6385 67.3513C21.1721 68.0048 22.9518 67.2853 23.6044 65.7475L36.8402 34.5369C37.4928 33.0012 36.7743 31.2191 35.2385 30.5657L32.4546 29.382L31.8746 30.7505C31.5296 31.5623 30.5958 31.9407 29.7851 31.5953L24.1185 29.1862C23.7296 29.0212 23.422 28.7066 23.2638 28.315C23.1056 27.9234 23.11 27.4833 23.2748 27.0939L23.8549 25.7255L21.071 24.5418C20.9304 24.4824 20.7898 24.434 20.647 24.3966V24.3988Z" fill="black"/>
<path d="M26.7065 44.7516C26.6626 44.1444 26.4473 43.579 26.0606 43.0598C25.6761 42.5405 25.0982 42.1159 24.3314 41.7859C23.8568 41.5813 23.2811 41.4757 22.6044 41.4713C21.9277 41.4647 21.196 41.6275 20.405 41.9575L19.9963 40.2854L17.7508 39.3174L13.6201 48.934L17.6871 50.6853L18.3089 49.2376C19.1878 49.5962 19.9985 49.8031 20.7434 49.8581C21.4882 49.9131 22.1672 49.8581 22.7802 49.6886C23.3932 49.5192 23.9381 49.2706 24.4105 48.9428C24.8829 48.615 25.285 48.2432 25.6145 47.8296C25.9441 47.4159 26.199 46.9979 26.3791 46.5777C26.6406 45.9683 26.7483 45.3611 26.7065 44.7516ZM22.3583 46.0167C22.0771 46.2631 21.7607 46.4787 21.4113 46.6635C21.062 46.8483 20.7258 46.9781 20.4006 47.0529C20.0754 47.1277 19.814 47.1233 19.6118 47.0375C19.3064 46.9055 19.1284 46.7339 19.0801 46.5205C19.0318 46.3071 19.0472 46.1047 19.1306 45.9111C19.2537 45.6273 19.4536 45.3589 19.7305 45.108C20.0073 44.8572 20.3237 44.6416 20.6731 44.4634C21.0224 44.283 21.3674 44.1642 21.7057 44.1048C22.0441 44.0454 22.3319 44.0674 22.5692 44.1686C22.8285 44.2808 22.9779 44.4414 23.0153 44.6482C23.0526 44.8572 23.0306 45.0596 22.945 45.2577C22.8329 45.5173 22.6373 45.7703 22.3561 46.0167H22.3583Z" fill="black"/>
<path d="M68.5459 115.795C67.7308 111.543 69.873 107.611 73.8741 106.014C75.8867 105.211 78.1256 104.804 80.525 104.804C80.8238 104.804 81.127 104.81 81.428 104.823L82.0146 99.6533L82.1904 98.1L82.9638 84.5848C83.2429 78.5895 78.8749 78.6863 72.8941 78.2903C67.1793 77.9119 61.9324 76.7744 61.0909 82.4485L58.4367 105.866C58.4367 105.866 58.4323 105.886 58.4301 105.895C58.4191 105.959 58.4081 106.023 58.3928 106.084C58.3752 106.155 58.3554 106.225 58.3312 106.293C58.1796 106.738 57.9072 107.118 57.5556 107.4C57.0942 107.769 56.4988 107.972 55.866 107.93C54.1236 107.811 51.5859 107.89 49.0921 108.887C43.1465 111.261 44.9702 120.16 51.3706 120.097L70.4882 119.903C69.5303 118.768 68.8491 117.371 68.5459 115.795Z" fill="black"/>
<path d="M98.7794 78.1917C93.0645 77.8132 87.8177 76.6758 86.9761 82.3499L84.3242 105.768C84.322 105.788 84.3154 105.805 84.3132 105.823C84.3044 105.878 84.2934 105.933 84.2802 105.986C84.2231 106.217 84.1352 106.432 84.0209 106.63C83.9836 106.694 83.9418 106.758 83.9001 106.819C83.4233 107.486 82.6235 107.891 81.7556 107.831C80.0133 107.713 77.4755 107.792 74.9817 108.788C69.0362 111.162 70.8598 120.062 77.2602 119.998L101.546 119.752C104.631 119.721 107.153 117.285 107.298 114.198L107.979 99.6338L107.937 100.523L108.853 84.4839C109.133 78.4887 104.765 78.5855 98.7838 78.1895L98.7794 78.1917Z" fill="black"/>
<path d="M119.378 53.1826C119.378 53.1826 133.066 62.8323 129.669 101.281C129.386 104.498 126.58 107.039 122.88 107.415C122.827 107.419 122.772 107.426 122.717 107.43C117.264 107.943 106.089 100.357 113.105 93.1496C113.105 93.1496 112.58 83.6738 111.411 79.872" fill="black"/>
<path d="M62.7883 16.4172L107.191 21.7189C111.395 22.2209 114.402 26.0475 113.901 30.2573L111.163 53.2483L51.5255 46.1275L54.2634 23.1365C54.7647 18.9267 58.5863 15.9155 62.7905 16.4175L62.7883 16.4172Z" fill="#F2FF00"/>
<path d="M112.542 55.0026L49.7734 47.509L52.6979 22.9493C52.9901 20.494 54.2205 18.2983 56.1628 16.767C58.103 15.238 60.522 14.5559 62.9763 14.8486L107.379 20.1508C109.831 20.4434 112.024 21.6755 113.553 23.6203C115.082 25.5652 115.761 27.9875 115.469 30.4429L112.545 55.0026H112.542ZM53.2779 44.7457L109.785 51.4934L112.336 30.0688C112.529 28.4496 112.081 26.8523 111.073 25.5718C110.066 24.2914 108.621 23.4795 107.003 23.2859L62.6006 17.9837C60.9835 17.7901 59.3883 18.2389 58.1095 19.2488C56.8308 20.2564 56.02 21.7041 55.8267 23.3233L53.2757 44.7479L53.2779 44.7457Z" fill="black"/>
<path d="M86.0642 75.1306C85.5588 75.1306 85.0623 75.0426 84.5833 74.8688C82.34 74.0525 81.1777 71.5598 81.995 69.3135L102.741 12.2188C103.36 10.5115 104.997 9.36523 106.81 9.36523C107.315 9.36523 107.812 9.45324 108.291 9.62705C109.378 10.0231 110.246 10.8195 110.734 11.8689C111.222 12.9184 111.275 14.0954 110.879 15.1845L90.1356 72.2771C89.516 73.9843 87.8791 75.1306 86.0664 75.1306H86.0642Z" fill="#6BC0B8"/>
<path d="M106.81 10.9053C107.126 10.9053 107.449 10.9603 107.763 11.0747C109.211 11.6028 109.96 13.2066 109.433 14.6565L88.6895 71.7491C88.2764 72.8843 87.2064 73.5906 86.0661 73.5906C85.7497 73.5906 85.4267 73.5356 85.1125 73.4211C83.6645 72.8931 82.9153 71.2893 83.4426 69.8394L104.186 12.7446C104.599 11.6094 105.669 10.9031 106.81 10.9031M106.81 7.8252C104.351 7.8252 102.136 9.37846 101.295 11.693L80.5511 68.7855C80.015 70.2596 80.0853 71.8569 80.7467 73.2781C81.4102 74.6994 82.5857 75.7797 84.0578 76.3165C84.7038 76.5519 85.3783 76.6707 86.0639 76.6707C88.5225 76.6707 90.7373 75.1174 91.5788 72.8029L112.322 15.7104C113.428 12.6654 111.854 9.28826 108.813 8.17941C108.168 7.944 107.493 7.8252 106.807 7.8252H106.81Z" fill="black"/>
<path d="M104.608 9.67111L110.297 2.26778C110.569 1.91356 110.912 1.73535 111.319 1.73535C111.725 1.73535 112.138 1.92456 112.402 2.22817C112.646 2.51199 112.74 2.864 112.681 3.27542L111.363 12.4828L104.608 9.67331V9.67111Z" fill="#6BC0B8"/>
<path d="M110.901 4.16906L110.044 10.1599L107.206 8.97848L110.901 4.16906ZM111.319 0.0966797C110.479 0.0966797 109.627 0.453096 109.001 1.26933L102.014 10.3667L112.683 14.8065L114.3 3.50903C114.588 1.49594 112.978 0.0988798 111.319 0.0988798V0.0966797Z" fill="black"/>
<path d="M83.7542 96.015C60.3938 96.015 41.4541 85.4809 41.4541 62.0894V41.6549C41.4541 37.5209 44.8004 34.168 48.9311 34.168H118.577C122.706 34.168 126.054 37.5187 126.054 41.6549V62.0894C126.054 85.4809 107.117 96.015 83.7542 96.015Z" fill="white"/>
<path d="M83.7547 97.5063C71.2505 97.5063 60.6052 94.5758 52.97 89.0316C44.4625 82.8537 39.9648 73.5385 39.9648 62.087V41.6524C39.9648 36.7022 43.9879 32.6738 48.9315 32.6738H118.578C123.521 32.6738 127.544 36.7022 127.544 41.6524V62.087C127.544 73.5363 123.047 82.8537 114.539 89.0316C106.902 94.5758 96.2566 97.5063 83.7547 97.5063ZM48.9315 35.6594C45.6314 35.6594 42.9464 38.3479 42.9464 41.6524V62.087C42.9464 72.6892 46.9079 80.9418 54.7189 86.6137C61.8444 91.7861 71.8833 94.5208 83.7547 94.5208C95.626 94.5208 105.665 91.7861 112.79 86.6137C120.604 80.9418 124.563 72.6892 124.563 62.087V41.6524C124.563 38.3479 121.878 35.6594 118.578 35.6594H48.9315Z" fill="black"/>
<path d="M71.1163 76.3231C76.3124 76.3231 80.5247 68.4616 80.5247 58.7641C80.5247 49.0665 76.3124 41.2051 71.1163 41.2051C65.9203 41.2051 61.708 49.0665 61.708 58.7641C61.708 68.4616 65.9203 76.3231 71.1163 76.3231Z" fill="#FFFFEE"/>
<path d="M71.116 77.5973C65.1265 77.5973 60.4355 69.325 60.4355 58.7645C60.4355 48.204 65.1265 39.9316 71.116 39.9316C77.1056 39.9316 81.7965 48.204 81.7965 58.7645C81.7965 69.325 77.1056 77.5973 71.116 77.5973ZM71.116 42.4816C66.7063 42.4816 62.9799 49.9399 62.9799 58.7667C62.9799 67.5935 66.7063 75.0518 71.116 75.0518C75.5258 75.0518 79.2522 67.5935 79.2522 58.7667C79.2522 49.9399 75.5258 42.4816 71.116 42.4816Z" fill="black"/>
<path d="M80.1946 62.5395C80.4715 60.8872 80.6187 60.4428 80.6187 58.6211C80.6187 51.0418 78.0458 44.5867 74.4402 42.127C70.8346 44.5867 68.2617 51.044 68.2617 58.6211C68.2617 66.1982 70.8346 72.6555 74.4402 75.1152C76.3122 73.837 77.9051 71.4829 79.0059 68.4511" fill="black"/>
<path d="M94.9406 76.6092C100.137 76.6092 104.349 68.7478 104.349 59.0502C104.349 49.3526 100.137 41.4912 94.9406 41.4912C89.7445 41.4912 85.5322 49.3526 85.5322 59.0502C85.5322 68.7478 89.7445 76.6092 94.9406 76.6092Z" fill="#FFFFEE"/>
<path d="M94.9403 77.8835C88.9507 77.8835 84.2598 69.6111 84.2598 59.0506C84.2598 48.4901 88.9507 40.2178 94.9403 40.2178C100.93 40.2178 105.621 48.4901 105.621 59.0506C105.621 69.6111 100.93 77.8835 94.9403 77.8835ZM94.9403 42.7677C90.5305 42.7677 86.8041 50.226 86.8041 59.0528C86.8041 67.8796 90.5305 75.338 94.9403 75.338C99.35 75.338 103.076 67.8796 103.076 59.0528C103.076 50.226 99.35 42.7677 94.9403 42.7677Z" fill="black"/>
<path d="M104.019 62.8256C104.296 61.1733 104.443 60.7289 104.443 58.9072C104.443 51.3279 101.87 44.8728 98.2644 42.4131C94.6588 44.8728 92.0859 51.3301 92.0859 58.9072C92.0859 66.4844 94.6588 72.9417 98.2644 75.4014C100.136 74.1231 101.729 71.769 102.83 68.7373" fill="black"/>
<path d="M126.294 42.917H131.662C131.949 42.917 132.182 43.1502 132.182 43.4384V64.5924C132.182 64.8806 131.949 65.1138 131.662 65.1138H126.294V42.917Z" fill="black"/>
<path d="M131.662 66.4953H124.914V41.5352H131.662C132.71 41.5352 133.562 42.3888 133.562 43.4382V64.5922C133.562 65.6416 132.71 66.4953 131.662 66.4953ZM127.674 63.732H130.803V44.2985H127.674V63.732Z" fill="black"/>
<path d="M82.3481 77.8349C85.7883 77.8349 88.5772 75.9732 88.5772 73.6767C88.5772 71.3802 85.7883 69.5186 82.3481 69.5186C78.908 69.5186 76.1191 71.3802 76.1191 73.6767C76.1191 75.9732 78.908 77.8349 82.3481 77.8349Z" fill="white"/>
<path d="M82.3483 79.4127C77.9715 79.4127 74.5439 76.8936 74.5439 73.6771C74.5439 70.4605 77.9715 67.9414 82.3483 67.9414C86.7251 67.9414 90.1527 70.4605 90.1527 73.6771C90.1527 76.8936 86.7251 79.4127 82.3483 79.4127ZM82.3483 71.0963C80.1533 71.0963 77.6969 72.1986 77.6969 73.6749C77.6969 75.1511 80.1533 76.2534 82.3483 76.2534C84.5433 76.2534 86.9998 75.1511 86.9998 73.6749C86.9998 72.1986 84.5433 71.0963 82.3483 71.0963Z" fill="black"/>
</g>
<defs>
<clipPath id="clip0_5200_22567">
<rect width="133.125" height="120" fill="white" transform="translate(0.4375 0.0966797)"/>
</clipPath>
</defs>
</svg>
