<svg width="16" height="16" viewBox="0 0 16 16" fill="none" xmlns="http://www.w3.org/2000/svg">
<rect width="16" height="16" fill="#F2FF00"/>
<g clip-path="url(#clip0_6643_18367)">
<path d="M7.99891 13C5.24285 13 3 10.7572 3 7.99891C3 5.24066 5.24285 3 7.99891 3C10.755 3 12.9978 5.24285 12.9978 7.99891C12.9978 10.755 10.755 12.9978 7.99891 12.9978V13ZM7.99891 3.87355C5.72549 3.87355 3.87355 5.72549 3.87355 7.99891C3.87355 10.2723 5.72549 12.1243 7.99891 12.1243C10.2723 12.1243 12.1243 10.2723 12.1243 7.99891C12.1243 5.72549 10.2745 3.87355 7.99891 3.87355Z" fill="black"/>
<path d="M5.885 10.1872V5.7627H8.61485C9.2045 5.7627 9.64783 5.88936 9.94483 6.14051C10.2418 6.39165 10.3903 6.75636 10.3903 7.23463C10.3903 7.57969 10.3074 7.86577 10.1436 8.09508C9.97978 8.32439 9.74173 8.49473 9.42944 8.60611L10.4318 10.1894H9.01232L8.15187 8.7699H7.12981V10.1894H5.88281L5.885 10.1872ZM8.50347 6.68648H7.13199V7.87669H8.50347C8.93151 7.87669 9.14553 7.6867 9.14553 7.30888V7.24555C9.14553 6.87211 8.93151 6.68429 8.50347 6.68429V6.68648Z" fill="black"/>
</g>
<defs>
<clipPath id="clip0_6643_18367">
<rect width="10" height="10" fill="white" transform="translate(3 3)"/>
</clipPath>
</defs>
</svg>
