<svg width="33" height="33" viewBox="0 0 33 33" fill="none" xmlns="http://www.w3.org/2000/svg">
<path d="M16.9163 0.814453H16.8436C8.04757 0.814453 0.916992 7.94505 0.916992 16.7411V16.8138C0.916992 25.6098 8.04757 32.7404 16.8436 32.7404H16.9163C25.7123 32.7404 32.8429 25.6098 32.8429 16.8138V16.7411C32.8429 7.94505 25.7123 0.814453 16.9163 0.814453Z" fill="#1F1F1F"/>
<path d="M24.8695 9.44668C23.3998 8.77221 21.8249 8.27559 20.1773 7.99148C20.1471 7.98589 20.1169 7.99931 20.1024 8.02728C19.8999 8.38744 19.6751 8.85834 19.5185 9.22745C17.7468 8.96236 15.984 8.96236 14.248 9.22745C14.0903 8.84939 13.8577 8.38744 13.6541 8.02728C13.6384 8.00043 13.6082 7.98701 13.5792 7.99148C11.9327 8.27559 10.3567 8.77221 8.88696 9.44668C8.87466 9.45227 8.86347 9.46122 8.85564 9.47352C5.86695 13.9387 5.04817 18.2942 5.44972 22.596C5.45196 22.6173 5.46315 22.6374 5.47992 22.6497C7.45188 24.0982 9.36234 24.9773 11.237 25.5601C11.2672 25.569 11.2985 25.5579 11.3175 25.5333C11.7604 24.9281 12.1564 24.2895 12.4953 23.6172C12.5154 23.5781 12.4953 23.5311 12.455 23.5154C11.8275 23.2772 11.2314 22.9875 10.6564 22.6587C10.6106 22.6318 10.6072 22.5669 10.6486 22.5356C10.7694 22.445 10.8902 22.3511 11.0054 22.256C11.0267 22.2381 11.0558 22.2347 11.0804 22.2459C14.8531 23.9684 18.938 23.9684 22.666 22.2459C22.6906 22.2336 22.7197 22.2381 22.741 22.2549C22.8562 22.3499 22.977 22.445 23.0989 22.5356C23.1403 22.5669 23.138 22.6318 23.0922 22.6587C22.5184 22.9942 21.9211 23.2783 21.2925 23.5154C21.2511 23.5311 21.2332 23.5781 21.2533 23.6183C21.6001 24.2883 21.9949 24.927 22.43 25.5333C22.4479 25.559 22.4803 25.5702 22.5105 25.5612C24.3941 24.9785 26.3046 24.0993 28.2765 22.6508C28.2933 22.6385 28.3045 22.6184 28.3067 22.5983C28.7877 17.6253 27.5014 13.3056 24.8986 9.47576C24.8919 9.46346 24.8818 9.45339 24.8684 9.4478L24.8695 9.44668ZM13.0568 19.9764C11.9204 19.9764 10.9853 18.934 10.9853 17.6533C10.9853 16.3726 11.9036 15.3301 13.0568 15.3301C14.21 15.3301 15.1473 16.3826 15.1283 17.6533C15.1283 18.934 14.21 19.9764 13.0568 19.9764ZM20.7175 19.9764C19.5811 19.9764 18.6461 18.934 18.6461 17.6533C18.6461 16.3726 19.5643 15.3301 20.7175 15.3301C21.8707 15.3301 22.8081 16.3826 22.789 17.6533C22.789 18.934 21.8808 19.9764 20.7175 19.9764Z" fill="white"/>
</svg>
