<svg width="33" height="33" viewBox="0 0 33 33" fill="none" xmlns="http://www.w3.org/2000/svg">
<rect x="0.842773" y="0.814453" width="31.926" height="31.926" rx="15.963" fill="#1F1F1F"/>
<path d="M14.0009 16.8743C14.0009 15.2696 15.3022 13.9684 16.9078 13.9684C18.5135 13.9684 19.8155 15.2696 19.8155 16.8743C19.8155 18.479 18.5135 19.7802 16.9078 19.7802C15.3022 19.7802 14.0009 18.479 14.0009 16.8743ZM12.429 16.8743C12.429 19.3464 14.4342 21.3504 16.9078 21.3504C19.3815 21.3504 21.3866 19.3464 21.3866 16.8743C21.3866 14.4021 19.3815 12.3982 16.9078 12.3982C14.4342 12.3982 12.429 14.4021 12.429 16.8743ZM20.5172 12.2207C20.5172 12.4276 20.5785 12.6299 20.6934 12.8019C20.8084 12.974 20.9718 13.1081 21.163 13.1874C21.3542 13.2666 21.5647 13.2874 21.7677 13.2471C21.9708 13.2069 22.1573 13.1073 22.3037 12.9611C22.4502 12.8148 22.5499 12.6285 22.5904 12.4256C22.6309 12.2227 22.6102 12.0124 22.5311 11.8212C22.4519 11.63 22.3178 11.4666 22.1458 11.3516C21.9737 11.2366 21.7714 11.1752 21.5643 11.1751H21.5639C21.2864 11.1752 21.0203 11.2854 20.8241 11.4814C20.6279 11.6775 20.5175 11.9434 20.5172 12.2207ZM13.384 23.9697C12.5336 23.931 12.0714 23.7895 11.7643 23.6699C11.357 23.5114 11.0665 23.3227 10.761 23.0178C10.4555 22.713 10.2664 22.4229 10.1086 22.0159C9.98883 21.709 9.84718 21.247 9.80852 20.3971C9.76623 19.4782 9.75779 19.2022 9.75779 16.8743C9.75779 14.5465 9.76693 14.2712 9.80852 13.3516C9.84725 12.5017 9.98994 12.0406 10.1086 11.7328C10.2671 11.3258 10.4559 11.0355 10.761 10.7302C11.0661 10.4248 11.3563 10.2359 11.7643 10.0781C12.0713 9.95845 12.5336 9.81688 13.384 9.77825C14.3034 9.73599 14.5796 9.72755 16.9078 9.72755C19.236 9.72755 19.5125 9.73669 20.4327 9.77825C21.2831 9.81695 21.7445 9.95956 22.0524 10.0781C22.4597 10.2359 22.7502 10.4253 23.0557 10.7302C23.3612 11.035 23.5496 11.3258 23.7081 11.7328C23.8279 12.0397 23.9695 12.5017 24.0082 13.3516C24.0505 14.2712 24.0589 14.5465 24.0589 16.8743C24.0589 19.2022 24.0505 19.4775 24.0082 20.3971C23.9695 21.247 23.8271 21.7089 23.7081 22.0159C23.5496 22.4229 23.3608 22.7132 23.0557 23.0178C22.7506 23.3225 22.4597 23.5114 22.0524 23.6699C21.7454 23.7895 21.2831 23.9311 20.4327 23.9697C19.5133 24.012 19.2371 24.0204 16.9078 24.0204C14.5786 24.0204 14.3031 24.012 13.384 23.9697ZM13.3118 8.21002C12.3833 8.25228 11.7488 8.39942 11.1947 8.61491C10.6208 8.83744 10.135 9.13598 9.64956 9.62037C9.16412 10.1048 8.86616 10.591 8.6435 11.1645C8.42789 11.7187 8.28065 12.3524 8.23837 13.2804C8.19539 14.2099 8.18555 14.507 8.18555 16.8743C8.18555 19.2415 8.19539 19.5387 8.23837 20.4681C8.28065 21.3962 8.42789 22.0299 8.6435 22.584C8.86616 23.1572 9.16419 23.644 9.64956 24.1282C10.1349 24.6124 10.6208 24.9105 11.1947 25.1336C11.7498 25.3491 12.3833 25.4963 13.3118 25.5385C14.2423 25.5808 14.5391 25.5913 16.9078 25.5913C19.2765 25.5913 19.5738 25.5815 20.5038 25.5385C21.4325 25.4963 22.0665 25.3491 22.621 25.1336C23.1945 24.9105 23.6806 24.6126 24.1661 24.1282C24.6515 23.6438 24.9489 23.1572 25.1722 22.584C25.3878 22.0299 25.5357 21.3961 25.5773 20.4681C25.6196 19.538 25.6294 19.2415 25.6294 16.8743C25.6294 14.507 25.6196 14.2099 25.5773 13.2804C25.535 12.3524 25.3878 11.7183 25.1722 11.1645C24.9489 10.5914 24.6508 10.1055 24.1661 9.62037C23.6814 9.13521 23.1945 8.83744 22.6217 8.61491C22.0665 8.39942 21.4324 8.25158 20.5045 8.21002C19.5745 8.16776 19.2772 8.15723 16.9085 8.15723C14.5398 8.15723 14.2423 8.16706 13.3118 8.21002Z" fill="white"/>
<path d="M14.0009 16.8743C14.0009 15.2696 15.3022 13.9684 16.9078 13.9684C18.5135 13.9684 19.8155 15.2696 19.8155 16.8743C19.8155 18.479 18.5135 19.7802 16.9078 19.7802C15.3022 19.7802 14.0009 18.479 14.0009 16.8743ZM12.429 16.8743C12.429 19.3464 14.4342 21.3504 16.9078 21.3504C19.3815 21.3504 21.3866 19.3464 21.3866 16.8743C21.3866 14.4021 19.3815 12.3982 16.9078 12.3982C14.4342 12.3982 12.429 14.4021 12.429 16.8743ZM20.5172 12.2207C20.5172 12.4276 20.5785 12.6299 20.6934 12.8019C20.8084 12.974 20.9718 13.1081 21.163 13.1874C21.3542 13.2666 21.5647 13.2874 21.7677 13.2471C21.9708 13.2069 22.1573 13.1073 22.3037 12.9611C22.4502 12.8148 22.5499 12.6285 22.5904 12.4256C22.6309 12.2227 22.6102 12.0124 22.5311 11.8212C22.4519 11.63 22.3178 11.4666 22.1458 11.3516C21.9737 11.2366 21.7714 11.1752 21.5643 11.1751H21.5639C21.2864 11.1752 21.0203 11.2854 20.8241 11.4814C20.6279 11.6775 20.5175 11.9434 20.5172 12.2207ZM13.384 23.9697C12.5336 23.931 12.0714 23.7895 11.7643 23.6699C11.357 23.5114 11.0665 23.3227 10.761 23.0178C10.4555 22.713 10.2664 22.4229 10.1086 22.0159C9.98883 21.709 9.84718 21.247 9.80852 20.3971C9.76623 19.4782 9.75779 19.2022 9.75779 16.8743C9.75779 14.5465 9.76693 14.2712 9.80852 13.3516C9.84725 12.5017 9.98994 12.0406 10.1086 11.7328C10.2671 11.3258 10.4559 11.0355 10.761 10.7302C11.0661 10.4248 11.3563 10.2359 11.7643 10.0781C12.0713 9.95845 12.5336 9.81688 13.384 9.77825C14.3034 9.73599 14.5796 9.72755 16.9078 9.72755C19.236 9.72755 19.5125 9.73669 20.4327 9.77825C21.2831 9.81695 21.7445 9.95956 22.0524 10.0781C22.4597 10.2359 22.7502 10.4253 23.0557 10.7302C23.3612 11.035 23.5496 11.3258 23.7081 11.7328C23.8279 12.0397 23.9695 12.5017 24.0082 13.3516C24.0505 14.2712 24.0589 14.5465 24.0589 16.8743C24.0589 19.2022 24.0505 19.4775 24.0082 20.3971C23.9695 21.247 23.8271 21.7089 23.7081 22.0159C23.5496 22.4229 23.3608 22.7132 23.0557 23.0178C22.7506 23.3225 22.4597 23.5114 22.0524 23.6699C21.7454 23.7895 21.2831 23.9311 20.4327 23.9697C19.5133 24.012 19.2371 24.0204 16.9078 24.0204C14.5786 24.0204 14.3031 24.012 13.384 23.9697ZM13.3118 8.21002C12.3833 8.25228 11.7488 8.39942 11.1947 8.61491C10.6208 8.83744 10.135 9.13598 9.64956 9.62037C9.16412 10.1048 8.86616 10.591 8.6435 11.1645C8.42789 11.7187 8.28065 12.3524 8.23837 13.2804C8.19539 14.2099 8.18555 14.507 8.18555 16.8743C8.18555 19.2415 8.19539 19.5387 8.23837 20.4681C8.28065 21.3962 8.42789 22.0299 8.6435 22.584C8.86616 23.1572 9.16419 23.644 9.64956 24.1282C10.1349 24.6124 10.6208 24.9105 11.1947 25.1336C11.7498 25.3491 12.3833 25.4963 13.3118 25.5385C14.2423 25.5808 14.5391 25.5913 16.9078 25.5913C19.2765 25.5913 19.5738 25.5815 20.5038 25.5385C21.4325 25.4963 22.0665 25.3491 22.621 25.1336C23.1945 24.9105 23.6806 24.6126 24.1661 24.1282C24.6515 23.6438 24.9489 23.1572 25.1722 22.584C25.3878 22.0299 25.5357 21.3961 25.5773 20.4681C25.6196 19.538 25.6294 19.2415 25.6294 16.8743C25.6294 14.507 25.6196 14.2099 25.5773 13.2804C25.535 12.3524 25.3878 11.7183 25.1722 11.1645C24.9489 10.5914 24.6508 10.1055 24.1661 9.62037C23.6814 9.13521 23.1945 8.83744 22.6217 8.61491C22.0665 8.39942 21.4324 8.25158 20.5045 8.21002C19.5745 8.16776 19.2772 8.15723 16.9085 8.15723C14.5398 8.15723 14.2423 8.16706 13.3118 8.21002Z" fill="white"/>
</svg>
