<svg width="33" height="33" viewBox="0 0 33 33" fill="none" xmlns="http://www.w3.org/2000/svg">
<path d="M16.7679 0.814453H16.6952C7.89916 0.814453 0.768555 7.94505 0.768555 16.7411V16.8138C0.768555 25.6098 7.89916 32.7404 16.6952 32.7404H16.7679C25.5639 32.7404 32.6945 25.6098 32.6945 16.8138V16.7411C32.6945 7.94505 25.5639 0.814453 16.7679 0.814453Z" fill="#1F1F1F"/>
<path d="M8.38264 11.4254C7.96208 11.035 7.75293 10.5518 7.75293 9.97688C7.75293 9.40196 7.9632 8.89751 8.38264 8.50603C8.80321 8.11566 9.34457 7.91992 10.0079 7.91992C10.6711 7.91992 11.1913 8.11566 11.6107 8.50603C12.0313 8.89639 12.2404 9.38742 12.2404 9.97688C12.2404 10.5663 12.0302 11.035 11.6107 11.4254C11.1901 11.8157 10.6566 12.0115 10.0079 12.0115C9.35912 12.0115 8.80321 11.8157 8.38264 11.4254ZM11.887 13.6646V25.6328H8.10525V13.6646H11.887Z" fill="#FEFFFC"/>
<path d="M24.4768 14.8481C25.3011 15.7429 25.7127 16.971 25.7127 18.5347V25.4226H22.1212V19.0202C22.1212 18.2316 21.9165 17.6187 21.5082 17.1824C21.1 16.7462 20.5497 16.527 19.8607 16.527C19.1716 16.527 18.6213 16.7451 18.2131 17.1824C17.8048 17.6187 17.6001 18.2316 17.6001 19.0202V25.4226H13.9873V13.6323H17.6001V15.1959C17.9659 14.6747 18.4592 14.2631 19.0788 13.96C19.6985 13.6569 20.3953 13.5059 21.1704 13.5059C22.5507 13.5059 23.6535 13.9533 24.4768 14.8481Z" fill="#FEFFFC"/>
</svg>
