<svg width="32" height="33" viewBox="0 0 32 33" fill="none" xmlns="http://www.w3.org/2000/svg">
<path d="M15.9946 0.814453H15.9219C7.12848 0.814453 0 7.94505 0 16.7411V16.8138C0 25.6098 7.12848 32.7404 15.9219 32.7404H15.9946C24.788 32.7404 31.9165 25.6098 31.9165 16.8138V16.7411C31.9165 7.94505 24.788 0.814453 15.9946 0.814453Z" fill="black"/>
<path fill-rule="evenodd" clip-rule="evenodd" d="M15.031 8.60106C11.2095 9.03208 8.94686 11.6789 8.66331 16.0503C8.24158 22.551 12.0974 26.419 17.8431 25.259C22.8029 24.2578 24.2819 18.5055 20.1098 16.4437C19.8833 16.3317 19.7889 16.2587 19.7751 16.1849C19.7645 16.1284 19.7328 15.9029 19.7046 15.6838C19.3054 12.5816 15.5965 11.3397 13.3942 13.5708C12.8787 14.0931 12.859 13.9907 13.5667 14.4685C14.1605 14.8695 14.1605 14.8695 14.4243 14.6059C15.6553 13.3762 17.8315 13.9121 18.1946 15.5344C18.2636 15.8427 18.287 15.8264 17.8468 15.7751C17.204 15.7001 15.618 15.7575 15.1913 15.8711C11.4197 16.8753 12.291 21.5696 16.2181 21.4033C18.0511 21.3257 19.2323 20.2558 19.6344 18.3089C19.7317 17.838 19.8007 17.8452 20.3237 18.3811C22.2269 20.3317 20.3804 23.4776 17.0926 23.8861C12.2503 24.4877 9.5645 21.2323 10.1817 15.5098C10.563 11.975 12.6427 10.0422 16.0612 10.0459C18.9005 10.0489 20.9618 11.4348 21.6718 13.8182C21.808 14.2756 21.7607 14.2615 22.5019 14.0652C23.3116 13.8508 23.2607 13.9085 23.0904 13.3979C21.9568 9.99893 18.879 8.16706 15.031 8.60106ZM17.5721 17.2495C18.3516 17.3343 18.2986 17.3053 18.2647 17.629C18.0518 19.6661 16.0317 20.7073 14.6485 19.4929C13.2726 18.2847 14.9883 16.9682 17.5721 17.2495Z" fill="white"/>
</svg>
