<svg width="278" height="153" viewBox="0 0 278 153" fill="none" xmlns="http://www.w3.org/2000/svg">
<path d="M46.2847 1.5498H203.275C217.195 1.5498 228.495 12.8498 228.495 26.7698V144.01H21.0547V26.7698C21.0547 12.8498 32.3547 1.5498 46.2747 1.5498H46.2847Z" fill="url(#paint0_linear_8464_84422)" stroke="#CCCCCC" stroke-width="2.3" stroke-miterlimit="10"/>
<path d="M102.004 18.7598L106.704 19.6798C105.844 21.1598 104.864 22.5798 103.764 23.9298C102.664 25.2798 101.434 26.5698 100.064 27.7798C98.6941 28.9898 97.1241 30.1198 95.3541 31.1798C95.1641 30.8298 94.8941 30.4498 94.5441 30.0298C94.1941 29.6098 93.8341 29.1998 93.4641 28.8098C93.0941 28.4198 92.7341 28.0998 92.4141 27.8698C94.0041 27.0398 95.4241 26.1298 96.6541 25.1298C97.8841 24.1298 98.9441 23.0898 99.8441 21.9998C100.734 20.9198 101.464 19.8298 102.024 18.7598H102.004ZM110.254 21.7498H111.034L111.724 21.5498L114.634 23.0798C113.804 25.3698 112.734 27.4498 111.424 29.3298C110.104 31.2098 108.594 32.8998 106.884 34.3998C105.174 35.8998 103.304 37.2198 101.274 38.3498C99.2441 39.4798 97.1141 40.4298 94.8641 41.1998C94.6941 40.8198 94.4641 40.3898 94.1841 39.9198C93.9041 39.4498 93.6141 38.9898 93.3041 38.5498C92.9941 38.1098 92.7041 37.7398 92.4141 37.4598C94.4741 36.8598 96.4441 36.0798 98.3241 35.1098C100.204 34.1398 101.934 33.0098 103.494 31.7098C105.054 30.4098 106.424 28.9898 107.584 27.4298C108.744 25.8698 109.634 24.2098 110.254 22.4398V21.7498ZM97.6541 28.7598L100.794 26.0498C101.404 26.4698 102.064 26.9598 102.764 27.5098C103.464 28.0598 104.134 28.5998 104.784 29.1498C105.434 29.6998 105.954 30.2098 106.354 30.6898L102.984 33.7198C102.634 33.2398 102.164 32.7098 101.554 32.1198C100.954 31.5298 100.304 30.9498 99.6041 30.3598C98.9041 29.7698 98.2541 29.2398 97.6441 28.7598H97.6541ZM105.004 32.8498H115.754V36.6298H105.004V46.3098H100.794V35.8798L103.934 32.8498H105.004ZM101.544 21.7498H111.544V25.4398H101.544V21.7498ZM103.244 41.4398H115.584V45.2198H103.244V41.4398ZM113.684 32.8498H118.034V46.3398H113.684V32.8498Z" fill="#939393"/>
<path d="M122.273 39.3401H148.243V42.9101H122.273V39.3401ZM123.713 20.0801H134.553V25.9901H123.713V20.0801ZM124.893 26.9401H145.793V38.2401H124.893V26.9401ZM127.403 22.5001V23.5701H130.633V22.5001H127.403ZM128.983 30.1101V31.1201H141.463V30.1101H128.983ZM128.983 34.0601V35.0701H141.463V34.0601H128.983ZM132.903 28.8201H137.253V46.3401H132.903V28.8201ZM135.933 20.0801H146.853V25.9901H135.933V20.0801ZM139.623 22.5001V23.5701H142.933V22.5001H139.623Z" fill="#939393"/>
<path d="M26.9336 60.9395H223.144" stroke="#DBDBDB" stroke-width="0.92" stroke-miterlimit="10"/>
<path d="M26.9336 91.1299H223.144" stroke="#DBDBDB" stroke-width="0.92" stroke-miterlimit="10"/>
<path d="M27.6953 121.319H223.905" stroke="#DBDBDB" stroke-width="0.92" stroke-miterlimit="10"/>
<path d="M38.4219 81.8293H52.7019V82.8593H38.4219V81.8293ZM38.7719 70.9793H52.4719V73.6693H50.9519V71.8993H40.2319V73.6693H38.7719V70.9793ZM39.3519 77.9993H51.7819V78.9793H39.3519V77.9993ZM39.3719 74.9093H42.9919V77.4593H39.3719V74.9093ZM39.4619 69.2393H51.7519V70.1993H39.4619V69.2393ZM41.8519 79.0693L42.9419 79.2793C42.7019 79.8493 42.3319 80.3493 41.8519 80.7893C41.3619 81.2293 40.8319 81.5893 40.2519 81.8693C40.1819 81.7493 40.0619 81.6093 39.9019 81.4393C39.7419 81.2693 39.6019 81.1393 39.4919 81.0393C40.0219 80.8193 40.4919 80.5393 40.9219 80.2093C41.3519 79.8793 41.6619 79.4993 41.8519 79.0593V79.0693ZM40.4119 73.9293C40.9119 73.8693 41.4819 73.7893 42.1419 73.6893C42.8019 73.5993 43.4819 73.4893 44.1919 73.3893L44.2219 74.0993C43.6019 74.2293 42.9919 74.3493 42.4019 74.4593C41.8119 74.5793 41.2619 74.6893 40.7419 74.7893L40.4119 73.9193V73.9293ZM40.4319 75.6593V76.6993H41.8919V75.6593H40.4319ZM40.8919 72.5993L41.2419 71.9393C41.5619 71.9993 41.8919 72.0793 42.2419 72.1693C42.5919 72.2593 42.9219 72.3493 43.2419 72.4593C43.5619 72.5593 43.8219 72.6593 44.0319 72.7493L43.6819 73.4793C43.4719 73.3693 43.2119 73.2693 42.8919 73.1593C42.5719 73.0593 42.2419 72.9493 41.8919 72.8493C41.5419 72.7493 41.2119 72.6693 40.8919 72.5993ZM41.5519 80.4793L42.0919 79.7693C42.4719 79.9293 42.8719 80.1293 43.3019 80.3593C43.7319 80.5893 44.0619 80.8193 44.3019 81.0193L43.7619 81.8093C43.5219 81.6093 43.1819 81.3793 42.7619 81.1293C42.3419 80.8793 41.9319 80.6593 41.5419 80.4793H41.5519ZM43.7019 74.9093H47.3919V77.4693H43.7019V74.9093ZM44.7619 75.6693V76.6993H46.2819V75.6693H44.7619ZM44.7819 78.2693H46.2219V82.3693H44.7819V78.2693ZM44.8119 69.6893H46.2719V74.4193H44.8119V69.6893ZM48.4619 79.0593L49.5819 79.2193C49.4019 79.8193 49.1019 80.3493 48.6819 80.7893C48.2619 81.2393 47.7619 81.5993 47.1919 81.8693C47.1219 81.7693 47.0019 81.6193 46.8519 81.4393C46.7019 81.2593 46.5619 81.1193 46.4519 81.0293C46.9519 80.8193 47.3719 80.5493 47.7219 80.2193C48.0719 79.8893 48.3219 79.4993 48.4619 79.0493V79.0593ZM46.8719 74.0093L47.1219 73.2993C47.5319 73.3493 47.9719 73.4193 48.4219 73.5093C48.8819 73.5893 49.3219 73.6893 49.7419 73.7893C50.1619 73.8893 50.5219 73.9893 50.8019 74.0793L50.5619 74.8993C50.2819 74.7893 49.9219 74.6893 49.4919 74.5793C49.0619 74.4693 48.6219 74.3593 48.1619 74.2593C47.7019 74.1593 47.2719 74.0793 46.8519 74.0093H46.8719ZM49.9019 71.8793L50.4419 72.5593C50.1419 72.6893 49.8219 72.7993 49.4819 72.9093C49.1319 73.0193 48.7819 73.1093 48.4319 73.1993C48.0819 73.2793 47.7619 73.3593 47.4719 73.4193L47.0419 72.7993C47.3219 72.7393 47.6419 72.6493 47.9919 72.5393C48.3419 72.4293 48.6819 72.3093 49.0319 72.1893C49.3819 72.0693 49.6719 71.9693 49.9119 71.8793H49.9019ZM48.1019 74.9093H51.8519V77.4693H48.1019V74.9093ZM48.4619 80.5293L48.9719 79.7693C49.2519 79.8593 49.5519 79.9793 49.8619 80.1293C50.1719 80.2693 50.4719 80.4193 50.7519 80.5593C51.0319 80.6993 51.2719 80.8493 51.4519 80.9893L50.9319 81.8393C50.6619 81.6393 50.2819 81.4193 49.8119 81.1693C49.3419 80.9193 48.8919 80.7093 48.4719 80.5293H48.4619ZM49.1619 75.6693V76.6993H50.7419V75.6693H49.1619Z" fill="#939393"/>
<path d="M55.3123 70.2795H56.6923V73.4895C56.6923 74.1695 56.6723 74.9195 56.6323 75.7695C56.5923 76.6095 56.5223 77.4795 56.4123 78.3695C56.3023 79.2595 56.1423 80.1395 55.9323 80.9895C55.7223 81.8495 55.4423 82.6395 55.0923 83.3695C55.0123 83.2895 54.8923 83.1895 54.7423 83.0895C54.5923 82.9895 54.4423 82.8795 54.2923 82.7795C54.1423 82.6795 54.0123 82.6095 53.9023 82.5695C54.2323 81.8795 54.4823 81.1495 54.6723 80.3695C54.8523 79.5895 54.9923 78.7895 55.0923 77.9695C55.1923 77.1495 55.2523 76.3595 55.2723 75.5895C55.3023 74.8195 55.3123 74.1195 55.3123 73.4895V70.2795ZM56.0223 70.2795H68.5023V71.5295H56.0223V70.2795ZM57.0223 79.0395L58.0223 79.3595C57.9723 79.7295 57.9023 80.1195 57.8123 80.5395C57.7323 80.9595 57.6323 81.3595 57.5223 81.7495C57.4123 82.1395 57.2823 82.4895 57.1323 82.7895L56.1323 82.2795C56.2823 81.9895 56.4123 81.6695 56.5223 81.3095C56.6323 80.9495 56.7323 80.5595 56.8123 80.1595C56.8923 79.7595 56.9623 79.3795 57.0223 79.0395ZM57.3723 72.4795H63.1123V73.5095H57.3723V72.4795ZM57.6523 74.4395H62.8223V78.0195H57.6523V74.4395ZM58.3023 78.8395H59.5223V81.6695C59.5223 81.8495 59.5523 81.9595 59.6123 82.0195C59.6723 82.0795 59.8023 82.0995 60.0123 82.0995H61.3423C61.4823 82.0995 61.5823 82.0595 61.6523 81.9695C61.7223 81.8895 61.7723 81.7195 61.8023 81.4695C61.8323 81.2195 61.8523 80.8495 61.8623 80.3395C61.9923 80.4295 62.1523 80.5195 62.3623 80.5995C62.5723 80.6795 62.7523 80.7395 62.9123 80.7795C62.8823 81.3995 62.8123 81.8795 62.7223 82.2295C62.6323 82.5795 62.4823 82.8095 62.2823 82.9395C62.0823 83.0695 61.8223 83.1395 61.4823 83.1395H59.8223C59.4123 83.1395 59.0923 83.0995 58.8823 83.0095C58.6623 82.9295 58.5123 82.7795 58.4323 82.5695C58.3523 82.3595 58.3023 82.0595 58.3023 81.6795V78.8295V78.8395ZM58.8723 75.4495V76.9795H61.6423V75.4495H58.8723ZM59.5123 78.3295L60.4423 77.8995C60.6823 78.2595 60.9423 78.6595 61.2023 79.0895C61.4623 79.5195 61.6723 79.8995 61.8223 80.2095L60.8423 80.7195C60.7123 80.4095 60.5223 80.0295 60.2623 79.5795C60.0023 79.1295 59.7523 78.7095 59.5123 78.3295ZM66.7523 72.3395L68.0523 72.6995C67.5423 73.9795 66.8823 75.1495 66.0723 76.2095C65.2523 77.2695 64.3623 78.1595 63.4023 78.8495C63.3423 78.7495 63.2423 78.6495 63.1223 78.5295C63.0023 78.4095 62.8623 78.2895 62.7323 78.1695C62.6023 78.0495 62.4823 77.9495 62.3923 77.8795C63.3423 77.2595 64.2023 76.4695 64.9623 75.5095C65.7223 74.5495 66.3223 73.4995 66.7623 72.3495L66.7523 72.3395ZM62.4823 79.2795L63.4923 78.8995C63.6723 79.2595 63.8523 79.6395 64.0323 80.0495C64.2123 80.4595 64.3823 80.8495 64.5423 81.2295C64.7023 81.6095 64.8323 81.9395 64.9323 82.2095L63.8423 82.6795C63.7623 82.3895 63.6423 82.0595 63.4823 81.6695C63.3223 81.2795 63.1623 80.8695 62.9923 80.4495C62.8223 80.0295 62.6423 79.6395 62.4823 79.2795ZM63.7023 68.6695H65.1223C65.1123 69.7895 65.1423 70.8895 65.2123 71.9695C65.2823 73.0495 65.3823 74.0895 65.5023 75.0695C65.6323 76.0595 65.7723 76.9595 65.9323 77.7895C66.0923 78.6195 66.2523 79.3395 66.4323 79.9495C66.6023 80.5595 66.7823 81.0395 66.9523 81.3695C67.1223 81.7095 67.2823 81.8795 67.4323 81.8795C67.5523 81.8795 67.6423 81.6495 67.7123 81.1895C67.7823 80.7295 67.8323 80.0195 67.8523 79.0595C68.0023 79.2195 68.1823 79.3695 68.4023 79.5195C68.6223 79.6695 68.8123 79.7795 68.9923 79.8495C68.9323 80.7495 68.8323 81.4395 68.7023 81.9395C68.5723 82.4395 68.3823 82.7795 68.1523 82.9795C67.9223 83.1795 67.6123 83.2695 67.2423 83.2695C66.8723 83.2695 66.5323 83.0695 66.2223 82.6895C65.9123 82.2995 65.6223 81.7495 65.3723 81.0395C65.1123 80.3295 64.8923 79.5095 64.6923 78.5795C64.4923 77.6495 64.3323 76.6395 64.1823 75.5495C64.0423 74.4595 63.9323 73.3395 63.8523 72.1695C63.7723 70.9995 63.7223 69.8295 63.7023 68.6695ZM65.3723 69.1095L66.2723 68.4795C66.5423 68.6695 66.8423 68.8795 67.1623 69.1195C67.4823 69.3595 67.7423 69.5695 67.9423 69.7395L67.0123 70.4495C66.8323 70.2695 66.5823 70.0495 66.2623 69.7895C65.9423 69.5295 65.6423 69.2995 65.3723 69.0995V69.1095Z" fill="#939393"/>
<path d="M38.4219 112.039H52.7019V113.069H38.4219V112.039ZM38.7719 101.189H52.4719V103.879H50.9519V102.109H40.2319V103.879H38.7719V101.189ZM39.3519 108.209H51.7819V109.189H39.3519V108.209ZM39.3719 105.129H42.9919V107.679H39.3719V105.129ZM39.4619 99.4492H51.7519V100.409H39.4619V99.4492ZM41.8519 109.289L42.9419 109.499C42.7019 110.069 42.3319 110.569 41.8519 111.009C41.3619 111.449 40.8319 111.809 40.2519 112.089C40.1819 111.969 40.0619 111.829 39.9019 111.659C39.7419 111.489 39.6019 111.359 39.4919 111.259C40.0219 111.039 40.4919 110.759 40.9219 110.429C41.3519 110.099 41.6619 109.719 41.8519 109.279V109.289ZM40.4119 104.149C40.9119 104.089 41.4819 104.009 42.1419 103.909C42.8019 103.809 43.4819 103.709 44.1919 103.609L44.2219 104.319C43.6019 104.449 42.9919 104.569 42.4019 104.679C41.8119 104.799 41.2619 104.909 40.7419 105.009L40.4119 104.139V104.149ZM40.4319 105.869V106.909H41.8919V105.869H40.4319ZM40.8919 102.819L41.2419 102.159C41.5619 102.219 41.8919 102.299 42.2419 102.389C42.5919 102.479 42.9219 102.579 43.2419 102.679C43.5619 102.779 43.8219 102.879 44.0319 102.969L43.6819 103.699C43.4719 103.589 43.2119 103.489 42.8919 103.379C42.5719 103.269 42.2419 103.169 41.8919 103.069C41.5419 102.969 41.2119 102.889 40.8919 102.819ZM41.5519 110.689L42.0919 109.979C42.4719 110.139 42.8719 110.339 43.3019 110.569C43.7319 110.799 44.0619 111.029 44.3019 111.229L43.7619 112.019C43.5219 111.819 43.1819 111.589 42.7619 111.339C42.3419 111.089 41.9319 110.869 41.5419 110.689H41.5519ZM43.7019 105.129H47.3919V107.689H43.7019V105.129ZM44.7619 105.879V106.909H46.2819V105.879H44.7619ZM44.7819 108.479H46.2219V112.579H44.7819V108.479ZM44.8119 99.9092H46.2719V104.639H44.8119V99.9092ZM48.4619 109.269L49.5819 109.429C49.4019 110.029 49.1019 110.559 48.6819 110.999C48.2619 111.449 47.7619 111.809 47.1919 112.079C47.1219 111.969 47.0019 111.829 46.8519 111.649C46.7019 111.469 46.5619 111.329 46.4519 111.239C46.9519 111.029 47.3719 110.759 47.7219 110.429C48.0719 110.099 48.3219 109.709 48.4619 109.259V109.269ZM46.8719 104.219L47.1219 103.509C47.5319 103.559 47.9719 103.629 48.4219 103.719C48.8819 103.799 49.3219 103.899 49.7419 103.999C50.1619 104.099 50.5219 104.199 50.8019 104.289L50.5619 105.109C50.2819 104.999 49.9219 104.899 49.4919 104.789C49.0619 104.679 48.6219 104.569 48.1619 104.469C47.7019 104.369 47.2719 104.289 46.8519 104.219H46.8719ZM49.9019 102.089L50.4419 102.769C50.1419 102.899 49.8219 103.009 49.4819 103.119C49.1319 103.229 48.7819 103.319 48.4319 103.399C48.0819 103.479 47.7619 103.559 47.4719 103.619L47.0419 102.999C47.3219 102.939 47.6419 102.849 47.9919 102.739C48.3419 102.629 48.6819 102.509 49.0319 102.389C49.3819 102.269 49.6719 102.169 49.9119 102.079L49.9019 102.089ZM48.1019 105.129H51.8519V107.689H48.1019V105.129ZM48.4619 110.739L48.9719 109.979C49.2519 110.069 49.5519 110.189 49.8619 110.339C50.1719 110.489 50.4719 110.629 50.7519 110.779C51.0319 110.929 51.2719 111.069 51.4519 111.209L50.9319 112.059C50.6619 111.859 50.2819 111.639 49.8119 111.389C49.3419 111.139 48.8919 110.929 48.4719 110.749L48.4619 110.739ZM49.1619 105.879V106.909H50.7419V105.879H49.1619Z" fill="#939393"/>
<path d="M55.3123 100.489H56.6923V103.699C56.6923 104.369 56.6723 105.129 56.6323 105.979C56.5923 106.819 56.5223 107.689 56.4123 108.579C56.3023 109.469 56.1423 110.349 55.9323 111.209C55.7223 112.069 55.4423 112.859 55.0923 113.589C55.0123 113.509 54.8923 113.409 54.7423 113.299C54.5923 113.189 54.4423 113.089 54.2923 112.989C54.1423 112.889 54.0123 112.819 53.9023 112.779C54.2323 112.089 54.4823 111.359 54.6723 110.579C54.8523 109.799 54.9923 108.999 55.0923 108.179C55.1923 107.359 55.2523 106.569 55.2723 105.799C55.3023 105.029 55.3123 104.329 55.3123 103.699V100.489ZM56.0223 100.489H68.5023V101.739H56.0223V100.489ZM57.0223 109.259L58.0223 109.579C57.9723 109.949 57.9023 110.339 57.8123 110.759C57.7323 111.179 57.6323 111.579 57.5223 111.969C57.4123 112.359 57.2823 112.709 57.1323 113.009L56.1323 112.499C56.2823 112.219 56.4123 111.889 56.5223 111.529C56.6323 111.169 56.7323 110.779 56.8123 110.379C56.8923 109.979 56.9623 109.599 57.0223 109.259ZM57.3723 102.689H63.1123V103.719H57.3723V102.689ZM57.6523 104.649H62.8223V108.229H57.6523V104.649ZM58.3023 109.049H59.5223V111.879C59.5223 112.059 59.5523 112.179 59.6123 112.229C59.6723 112.279 59.8023 112.309 60.0123 112.309H61.3423C61.4823 112.309 61.5823 112.269 61.6523 112.179C61.7223 112.089 61.7723 111.929 61.8023 111.679C61.8323 111.429 61.8523 111.059 61.8623 110.549C61.9923 110.639 62.1523 110.729 62.3623 110.809C62.5723 110.889 62.7523 110.949 62.9123 110.989C62.8823 111.609 62.8123 112.099 62.7223 112.439C62.6323 112.779 62.4823 113.019 62.2823 113.149C62.0823 113.279 61.8223 113.349 61.4823 113.349H59.8223C59.4123 113.349 59.0923 113.309 58.8823 113.219C58.6623 113.139 58.5123 112.989 58.4323 112.779C58.3523 112.569 58.3023 112.269 58.3023 111.889V109.039V109.049ZM58.8723 105.659V107.189H61.6423V105.659H58.8723ZM59.5123 108.539L60.4423 108.109C60.6823 108.469 60.9423 108.869 61.2023 109.299C61.4623 109.729 61.6723 110.109 61.8223 110.419L60.8423 110.929C60.7123 110.619 60.5223 110.239 60.2623 109.789C60.0023 109.339 59.7523 108.919 59.5123 108.539ZM66.7523 102.549L68.0523 102.909C67.5423 104.189 66.8823 105.359 66.0723 106.419C65.2523 107.489 64.3623 108.369 63.4023 109.059C63.3423 108.969 63.2423 108.859 63.1223 108.739C63.0023 108.619 62.8623 108.499 62.7323 108.379C62.6023 108.259 62.4823 108.159 62.3923 108.089C63.3423 107.469 64.2023 106.679 64.9623 105.719C65.7223 104.759 66.3223 103.709 66.7623 102.559L66.7523 102.549ZM62.4823 109.489L63.4923 109.109C63.6723 109.469 63.8523 109.849 64.0323 110.259C64.2123 110.669 64.3823 111.059 64.5423 111.439C64.7023 111.819 64.8323 112.149 64.9323 112.419L63.8423 112.889C63.7623 112.609 63.6423 112.269 63.4823 111.879C63.3323 111.489 63.1623 111.079 62.9923 110.659C62.8223 110.239 62.6423 109.849 62.4823 109.489ZM63.7023 98.8794H65.1223C65.1123 99.9994 65.1423 101.099 65.2123 102.179C65.2823 103.259 65.3823 104.289 65.5023 105.279C65.6223 106.269 65.7723 107.169 65.9323 107.999C66.0923 108.829 66.2523 109.549 66.4323 110.159C66.6123 110.769 66.7823 111.249 66.9523 111.579C67.1223 111.919 67.2823 112.089 67.4323 112.089C67.5523 112.089 67.6423 111.859 67.7123 111.399C67.7823 110.939 67.8323 110.229 67.8523 109.269C68.0023 109.429 68.1823 109.579 68.4023 109.729C68.6223 109.879 68.8123 109.989 68.9923 110.059C68.9323 110.959 68.8323 111.649 68.7023 112.149C68.5723 112.649 68.3823 112.989 68.1523 113.189C67.9123 113.379 67.6123 113.479 67.2423 113.479C66.8723 113.479 66.5323 113.279 66.2223 112.899C65.9123 112.509 65.6223 111.959 65.3723 111.249C65.1123 110.539 64.8923 109.719 64.6923 108.789C64.4923 107.859 64.3323 106.849 64.1823 105.759C64.0423 104.669 63.9323 103.549 63.8523 102.369C63.7723 101.199 63.7223 100.039 63.7023 98.8695V98.8794ZM65.3723 99.3195L66.2723 98.6895C66.5423 98.8795 66.8423 99.0895 67.1623 99.3295C67.4823 99.5695 67.7423 99.7794 67.9423 99.9494L67.0123 100.659C66.8323 100.479 66.5823 100.259 66.2623 99.9995C65.9423 99.7395 65.6423 99.5094 65.3723 99.3094V99.3195Z" fill="#939393"/>
<path fill-rule="evenodd" clip-rule="evenodd" d="M17.3056 92.2695C17.9356 92.2695 18.4856 92.6895 18.6556 93.2895L20.1756 98.6195C20.8456 100.95 22.6656 102.77 24.9956 103.44L30.3256 104.96C30.9256 105.13 31.3456 105.68 31.3456 106.31C31.3456 106.94 30.9256 107.49 30.3256 107.66L24.9956 109.18C22.6656 109.85 20.8456 111.67 20.1756 114L18.6556 119.33C18.4856 119.93 17.9356 120.35 17.3056 120.35C16.6756 120.35 16.1256 119.93 15.9556 119.33L14.4356 114C13.7656 111.67 11.9456 109.85 9.61562 109.18L4.28562 107.66C3.68562 107.49 3.26562 106.94 3.26562 106.31C3.26562 105.68 3.68562 105.13 4.28562 104.96L9.61562 103.44C11.9456 102.77 13.7656 100.95 14.4356 98.6195L15.9556 93.2895C16.1256 92.6895 16.6756 92.2695 17.3056 92.2695Z" fill="black"/>
<path d="M256.865 89.3496H0.464844V148.33H256.865V89.3496Z" fill="url(#paint1_linear_8464_84422)"/>
<path d="M199.512 112.53C199.512 112.53 185.902 118.33 159.672 90.1C157.862 88.15 155.992 82.35 156.792 77.85C157.232 75.4 159.572 72.12 161.962 71.41C167.122 69.88 174.042 70.96 173.962 81.24C173.962 81.24 181.282 87.23 184.812 88.95" fill="black"/>
<path d="M173.221 96.7993C171.881 96.7993 170.651 95.9493 170.171 94.6993L153.921 51.9893C153.611 51.1793 153.641 50.2893 153.991 49.4893C154.351 48.6993 154.991 48.0893 155.811 47.7793C156.181 47.6393 156.571 47.5693 156.971 47.5693C158.311 47.5693 159.541 48.4193 160.021 49.6693L176.271 92.3793C176.581 93.1893 176.551 94.0793 176.201 94.8793C175.841 95.6693 175.201 96.2793 174.381 96.5893C174.011 96.7293 173.621 96.7993 173.221 96.7993Z" fill="#46C2B7"/>
<path d="M156.971 48.7292C157.821 48.7292 158.621 49.2492 158.941 50.0892L175.191 92.7992C175.601 93.8892 175.061 95.0992 173.971 95.5092C173.721 95.5992 173.471 95.6492 173.221 95.6492C172.371 95.6492 171.571 95.1292 171.251 94.2892L155.001 51.5792C154.591 50.4892 155.131 49.2792 156.221 48.8692C156.471 48.7792 156.721 48.7292 156.971 48.7292ZM156.971 46.4092C156.431 46.4092 155.901 46.5092 155.401 46.6992C153.121 47.5692 151.971 50.1192 152.841 52.3992L169.091 95.1092C169.741 96.8092 171.401 97.9592 173.221 97.9592C173.761 97.9592 174.291 97.8592 174.791 97.6692C175.891 97.2492 176.771 96.4292 177.251 95.3492C177.731 94.2692 177.771 93.0692 177.351 91.9692L161.101 49.2592C160.451 47.5592 158.791 46.4092 156.971 46.4092Z" fill="black"/>
<path d="M153.343 42.6798C153.323 42.3798 153.413 42.1198 153.593 41.9298C153.793 41.7198 154.093 41.5898 154.393 41.5898C154.633 41.5898 154.973 41.6698 155.233 42.0698L158.963 47.8898L153.733 49.6198L153.343 42.6798Z" fill="#46C2B7"/>
<path d="M154.623 43.3896L157.083 47.2196L154.883 47.9496L154.623 43.3896ZM154.403 40.3596C153.213 40.3596 152.033 41.2896 152.113 42.7496L152.593 51.2596C152.593 51.2596 152.603 51.2796 152.613 51.2796L160.823 48.5696C160.823 48.5696 160.843 48.5496 160.833 48.5396L156.253 41.3996C155.793 40.6796 155.083 40.3496 154.383 40.3496L154.403 40.3596Z" fill="black"/>
<path d="M170.742 75.0395C170.742 75.0395 164.162 71.3895 162.712 78.7995C161.542 84.7795 169.933 86.0895 173.533 84.9395" fill="black"/>
<path d="M211.683 148.26C210.853 143.96 213.023 139.98 217.083 138.37C219.123 137.56 221.393 137.15 223.823 137.15C224.123 137.15 224.433 137.15 224.733 137.17L225.323 131.94L225.503 130.37L226.283 116.7C226.563 110.63 222.143 110.73 216.083 110.33C210.293 109.95 204.983 108.8 204.123 114.54L201.433 138.23C201.433 138.23 201.433 138.25 201.433 138.26C201.423 138.33 201.413 138.39 201.393 138.45C201.373 138.52 201.353 138.59 201.333 138.66C201.183 139.11 200.903 139.49 200.543 139.78C200.073 140.15 199.473 140.36 198.833 140.32C197.073 140.2 194.493 140.28 191.973 141.29C185.953 143.69 187.803 152.69 194.283 152.63L213.643 152.43C212.673 151.28 211.983 149.87 211.673 148.28L211.683 148.26Z" fill="black"/>
<path d="M242.303 110.22C236.513 109.84 231.203 108.69 230.343 114.43L227.653 138.12C227.653 138.12 227.653 138.15 227.653 138.16C227.653 138.15 227.653 138.13 227.653 138.12C227.653 138.14 227.653 138.16 227.643 138.18C227.643 138.24 227.623 138.29 227.613 138.34C227.553 138.57 227.463 138.79 227.353 138.99C227.313 139.06 227.273 139.12 227.233 139.18C226.753 139.85 225.943 140.26 225.063 140.2C223.303 140.08 220.723 140.16 218.203 141.17C212.183 143.57 214.033 152.57 220.513 152.51L245.113 152.26C248.233 152.23 250.793 149.76 250.943 146.64L251.633 131.91L251.593 132.81L252.523 116.59C252.803 110.52 248.383 110.62 242.323 110.22H242.303Z" fill="black"/>
<path d="M263.166 84.9199C263.166 84.9199 277.026 94.6799 273.586 133.57C273.296 136.82 270.456 139.39 266.706 139.78C266.656 139.78 266.596 139.79 266.546 139.8C261.026 140.32 249.706 132.65 256.806 125.35C256.806 125.35 256.276 115.76 255.086 111.92" fill="black"/>
<path d="M205.852 47.7276L250.823 53.0901C255.083 53.5981 258.127 57.4657 257.619 61.7255L254.846 84.9807L194.444 77.7782L197.217 54.523C197.725 50.2631 201.592 47.2197 205.852 47.7276Z" fill="#EEFF00"/>
<path d="M256.244 86.7601L192.664 79.1801L195.624 54.3401C195.924 51.8601 197.164 49.6301 199.134 48.0901C201.104 46.5501 203.554 45.8501 206.034 46.1501L251.004 51.5101C253.484 51.8101 255.714 53.0501 257.254 55.0201C258.804 56.9901 259.494 59.4401 259.194 61.9201L256.234 86.7601H256.244ZM196.214 76.3901L253.444 83.2101L256.024 61.5401C256.224 59.9001 255.764 58.2901 254.744 56.9901C253.724 55.6901 252.264 54.8701 250.624 54.6801L205.654 49.3201C204.014 49.1201 202.404 49.5801 201.104 50.6001C199.804 51.6201 198.984 53.0801 198.794 54.7201L196.214 76.3901Z" fill="black"/>
<path d="M227.086 128.25C203.426 128.25 184.246 117.59 184.246 93.9304V73.2604C184.246 69.0804 187.636 65.6904 191.816 65.6904H262.356C266.536 65.6904 269.926 69.0804 269.926 73.2604V93.9304C269.926 117.59 250.746 128.25 227.086 128.25Z" fill="white"/>
<path d="M227.084 129.76C214.424 129.76 203.634 126.8 195.904 121.19C187.284 114.94 182.734 105.52 182.734 93.9404V73.2704C182.734 68.2604 186.804 64.1904 191.814 64.1904H262.354C267.364 64.1904 271.434 68.2604 271.434 73.2704V93.9404C271.434 105.52 266.884 114.95 258.264 121.19C250.524 126.8 239.744 129.76 227.084 129.76ZM191.814 67.1904C188.474 67.1904 185.754 69.9104 185.754 73.2504V93.9204C185.754 104.65 189.764 112.99 197.684 118.73C204.904 123.96 215.074 126.73 227.094 126.73C239.114 126.73 249.284 123.96 256.504 118.73C264.414 112.99 268.434 104.65 268.434 93.9204V73.2504C268.434 69.9104 265.714 67.1904 262.374 67.1904H191.834H191.814Z" fill="black"/>
<path d="M214.284 108.331C219.547 108.331 223.814 100.379 223.814 90.5705C223.814 80.762 219.547 72.8105 214.284 72.8105C209.021 72.8105 204.754 80.762 204.754 90.5705C204.754 100.379 209.021 108.331 214.284 108.331Z" fill="#FFFFEB"/>
<path d="M214.285 109.621C208.215 109.621 203.465 101.251 203.465 90.5705C203.465 79.8905 208.215 71.5205 214.285 71.5205C220.355 71.5205 225.105 79.8905 225.105 90.5705C225.105 101.251 220.355 109.621 214.285 109.621ZM214.285 74.1005C209.815 74.1005 206.045 81.6405 206.045 90.5705C206.045 99.5005 209.815 107.041 214.285 107.041C218.755 107.041 222.525 99.5005 222.525 90.5705C222.525 81.6405 218.755 74.1005 214.285 74.1005Z" fill="black"/>
<path d="M223.485 94.3902C223.765 92.7202 223.915 92.2702 223.915 90.4302C223.915 82.7602 221.305 76.2302 217.655 73.7402C214.005 76.2302 211.395 82.7602 211.395 90.4302C211.395 98.1002 214.005 104.63 217.655 107.12C219.555 105.83 221.165 103.45 222.275 100.38" fill="black"/>
<path d="M238.413 108.621C243.676 108.621 247.943 100.669 247.943 90.8606C247.943 81.052 243.676 73.1006 238.413 73.1006C233.15 73.1006 228.883 81.052 228.883 90.8606C228.883 100.669 233.15 108.621 238.413 108.621Z" fill="#FFFFEB"/>
<path d="M238.414 109.911C232.344 109.911 227.594 101.541 227.594 90.8605C227.594 80.1805 232.344 71.8105 238.414 71.8105C244.484 71.8105 249.234 80.1805 249.234 90.8605C249.234 101.541 244.484 109.911 238.414 109.911ZM238.414 74.3805C233.944 74.3805 230.174 81.9205 230.174 90.8505C230.174 99.7805 233.944 107.321 238.414 107.321C242.884 107.321 246.654 99.7805 246.654 90.8505C246.654 81.9205 242.884 74.3805 238.414 74.3805Z" fill="black"/>
<path d="M247.613 94.6803C247.893 93.0103 248.043 92.5603 248.043 90.7203C248.043 83.0503 245.433 76.5203 241.783 74.0303C238.133 76.5203 235.523 83.0503 235.523 90.7203C235.523 98.3903 238.133 104.92 241.783 107.41C243.683 106.12 245.293 103.74 246.403 100.67" fill="black"/>
<path d="M270.176 74.54H275.616C275.906 74.54 276.146 74.78 276.146 75.07V96.47C276.146 96.76 275.906 97 275.616 97H270.176V74.55V74.54Z" fill="black"/>
<path d="M275.615 98.3896H268.785V73.1396H275.615C276.675 73.1396 277.535 73.9996 277.535 75.0596V96.4596C277.535 97.5196 276.675 98.3796 275.615 98.3796V98.3896ZM271.575 95.5896H274.745V75.9296H271.575V95.5896Z" fill="black"/>
<path d="M225.665 109.859C229.15 109.859 231.975 107.975 231.975 105.649C231.975 103.324 229.15 101.439 225.665 101.439C222.181 101.439 219.355 103.324 219.355 105.649C219.355 107.975 222.181 109.859 225.665 109.859Z" fill="white"/>
<path d="M225.664 111.45C221.234 111.45 217.754 108.9 217.754 105.65C217.754 102.4 221.224 99.8496 225.664 99.8496C230.104 99.8496 233.564 102.4 233.564 105.65C233.564 108.9 230.094 111.45 225.664 111.45ZM225.664 103.04C223.444 103.04 220.954 104.16 220.954 105.65C220.954 107.14 223.444 108.26 225.664 108.26C227.884 108.26 230.374 107.14 230.374 105.65C230.374 104.16 227.884 103.04 225.664 103.04Z" fill="black"/>
<defs>
<linearGradient id="paint0_linear_8464_84422" x1="124.775" y1="144.01" x2="124.775" y2="1.5498" gradientUnits="userSpaceOnUse">
<stop offset="0.29" stop-color="#DDDDDD"/>
<stop offset="0.91" stop-color="#FAFAFA"/>
<stop offset="1" stop-color="white"/>
</linearGradient>
<linearGradient id="paint1_linear_8464_84422" x1="128.665" y1="148.33" x2="128.665" y2="89.3496" gradientUnits="userSpaceOnUse">
<stop offset="0.32" stop-color="white"/>
<stop offset="0.4" stop-color="white" stop-opacity="0.92"/>
<stop offset="0.55" stop-color="white" stop-opacity="0.71"/>
<stop offset="0.77" stop-color="white" stop-opacity="0.37"/>
<stop offset="1" stop-color="white" stop-opacity="0"/>
</linearGradient>
</defs>
</svg>
